<svg version="1.2" xmlns="http://www.w3.org/2000/svg" viewBox="0 0 1640 370" width="1640" height="370">
	<title>Nuovo progetto</title>
	<style>
		.s0 { fill: #fefefe } 
		.s1 { fill: #000000 } 
	</style>
	<g id="Layer 1">
	</g>
	<g id="&lt;Group&gt;">
		<path id="&lt;Path&gt;" fill-rule="evenodd" class="s0" d="m1031.8 348.9c-1.7 0-3.4-0.1-5.1-0.2-18.8-1-35.7-7.2-48.7-17.9-3.1-2.4-5.7-5-8.2-7.7-3.8-4.3-9.3-6.7-14.9-6.7-5.9 0-11.5 2.6-15.3 7-1.7 2-3.4 3.8-5.3 5.5-11.8 10.9-24.7 14.4-28.9 15.6-7.2 2-14.8 3-22.3 3-3.1 0-6.3-0.2-9.5-0.6l-2.4-0.3c-6-0.6-12.2-1.3-18.4-2.4-1.9-0.2-3.5-0.4-5.2-0.4-2.7 0-5.3 0.4-8.1 1q-3.8 0.9-7.3 0.9c-5.2 0-10.4-1.4-14.8-4.1q-2.7-1.6-4.9-3.7c-4.2-4.1-9.7-6.4-15.6-6.4-4.4 0-8.6 1.3-12.3 3.7q-1.6 1-3.5 2.1c-7.8 4.4-16.2 7.4-24.8 8.9-4.9 0.8-9.8 1.2-14.4 1.2-15.6 0-30-3.8-32.7-6.3-3.2-3.1-7.1-5-11.4-5.4h-0.4-0.8c-7.1 0-11.8 4.4-14.1 6.6l-0.5 0.5c-0.8 0.7-2.8 1.1-5.5 1.1q-1.5 0-3.3-0.2l-0.6-0.1h-1.3c-4.5 0-9.1-0.2-13.2-0.4l-3.9-0.1-7.4-0.4c-4.3-0.3-8.3-0.5-12.1-0.6q-4.7 0-9.4 0c-6.2 0-12.5 0.1-18.8 0.3-3.5 0-7.5 0.3-10.9 0.5q-4 0.3-8 0.5h-0.6c-2.9 0.2-6.1 0.3-9.3 0.3q-0.1 0-0.2 0c-0.8 0-2.9 0-4.5-0.1q-4.2-0.2-9-1.8c-1.9-0.6-4-0.9-6.1-0.9-2.8 0-5.5 0.5-8.1 1.6-1.2 0.5-2.6 1.1-4.1 1.6q0 0 0 0c0 0-2.3 0.7-4.6 1.3-5.3 1.3-10.8 2-16.2 2-7.5 0-15.1-1.3-22.7-3.9q-5.4-1.8-10.3-4.8l-2.8-1.8h-6.8l-3.1 1.9q-1.2 0.8-2.9 1.6c-4.1 2-8.7 3.1-13.2 3.2h-1.4c-2.6 0-5.3-0.1-7.8-0.3l-1.6-0.1c-1 0-2.1-0.1-3.3-0.2l-5.8-0.3c-3.3-0.3-6.9-0.5-10.3-0.6h-8.5c-7.8 0-15.6 0.1-23.4 0.2h-4.9c-2.9 0.1-6.1 0.2-9.2 0.3l-2.7 0.1c-5.8 0.3-12 0.4-18.8 0.4-6.5 0-13.8-0.1-23-0.4-1.7 0-3.2-0.1-4.8-0.1l-0.7-0.1c-4.4-0.1-8.7-0.2-12.7-0.2-4.9 0-9.5 0.2-14.1 0.5-6.7 0.6-12.5 0.9-17.9 0.9-3.9 0-7.4-0.2-10.8-0.4-11.2-0.9-22.7-1.3-34.1-1.3-4.2 0-8.4 0.1-12.6 0.2-4.6 0.1-9.4 0.4-13.8 0.6l-1.7 0.1c-3.7 0.3-7.2 0.4-10.7 0.6-2.6 0.1-5.4 0.2-8.5 0.2-0.1 0-2.7 0-4.9-0.1-0.1 0-3.7-0.3-14.1-5.5-3.9-2-8.4-3-13-3-4.1 0-8.3 0.9-12 2.6-4.7 2.1-9.5 4-13.9 5.2-5.6 1.8-17 4.6-31.3 4.6-3.6 0-7.1-0.2-10.4-0.5l-6.1-0.6c-6.3-0.6-12.8-1.2-19.1-1.7-1.8-0.2-3.5-0.2-5.3-0.2-3.6 0-7.4 0.3-11.3 0.9-2.4 0.5-5.2 0.9-8.2 0.9-3.4 0-6.7-0.5-9.8-1.6-7.9-2.7-14-8.9-16.5-16.8-1.2-3.9-1.8-8-1.8-12.4 0.1-6.2-0.9-12.7-1.9-19.7v-0.4q-1.3-9.1-2.7-18c-1.4-9-2.7-18.1-4-27.3-1-7.6-1.5-14.9-2-21.7-0.5-9.8 3.4-18.3 11-23.9q3.9-2.9 8.4-4.2c5.6-1.5 9.9-5.7 11.5-11.2 1.7-5.4 0.4-11.2-3.4-15.5-6.2-7.2-11.4-15.3-15.3-23.8-3.6-7.6-6.3-16.1-7.6-23.7-1.1-6.6-1.5-13-1.1-19.6 0.7-14.4 3.7-26.7 9.1-37.7 11.2-22.6 30.5-38 55.9-44.3 9.2-2.4 19-3.5 29.1-3.5h2q0.5 0 1 0c2.4 0.3 7.5 0.7 7.5 0.7l1.9 0.2c5 0.5 10.1 1 15.3 1.6 3.7 0.4 6.9 0.6 9.8 0.6 3.6 0 6.7-0.3 9.6-0.9 2.7-0.6 5.2-0.9 7.7-0.9 3.1 0 6 0.4 8.9 1.2 2.5 0.8 8.7 2.7 12.2 7.4 1.7 2.3 2.4 4.8 3.1 7.5 1 3.7 3.4 12.5 12.7 13.9l0.9 0.2h1.2c6.1 0 9.7-3.8 11.7-5.8 0.9-1.1 1.9-2 3.4-3.1 2.9-2.1 5.4-3 10.1-4.2 5.3-1.5 9.9-2.1 14.2-2.1 2 0 3.8 0.1 5.4 0.3 15.1 2 26.3 8.9 33.3 20.3 5.7 9.5 7.7 20.2 5.9 30.9-0.3 1.8-0.6 3.4-1.1 5.1-1.3 5-0.4 10.2 2.6 14.4 3 4.3 7.8 6.9 13 7.3 0.9 0 1.9 0.1 2.9 0.1 1.9 0.2 3.7 0.3 5.5 0.4l2.3 0.2c2.9 0.2 5.4 0.4 7.9 0.4 15.8 0 30.8-0.2 46-0.6 9.1-0.2 16.4-0.3 23-0.3 9.9 0 18.8 0.2 27.3 0.5 3.7 0.2 7.5 0.3 11.2 0.3 6 0 11.4-0.2 16.5-0.8 3.1-0.3 6.1-0.4 9-0.5 0 0 6.6-0.2 6.6-0.2 0.4 0 0.7 0 1.5 0.3 1.3 0.3 3.2 0.8 5.6 0.8q3.1 0 5.9-1.2c2.7-1 4.4-2.6 5.1-3.2l0.5-0.4c2.9-2.8 4-5.7 4.5-7 1-2.4 2.2-5.8 2.8-12.2 0.4-3.4 1.1-6.7 2.1-9.7 3.8-11.5 13.4-18.4 25.9-18.4h1c10.4 0.2 18.9 5.5 23.1 14.4 2.4 5 3 9.9 3.1 13.2 0 1.6 0.1 2.9 0.1 4.2 0.2 10.1 8.3 18.2 18 18.2q1.1 0 2.1-0.2c5.3-0.6 9.8-3.4 12.7-7.5 2.9-4.2 3.9-9.4 2.6-14.6-1.2-5.3-1.5-10.5-0.8-15.5 2.5-18.5 13.6-31.9 30.3-36.8 5.2-1.5 10-2.3 14.4-2.3q2.9 0 5.7 0.4c10.6 1.5 19 5.2 25.7 11.3 5.5 5 9.3 11 11.5 17.6l0.7 2.5c3.1 11.3 1.9 19.6 0.2 24.5-0.7 2.3-2.5 6.7-3.4 8.8-0.8 1.5-2.2 4.5-2.9 7.4-1.3 6.2 1.1 10.3 3.1 13.6l1.1 1.9c1.2 2.1 2 3.6 2.6 4.8 1.6 3.3 3.9 7.7 9.9 9.6 1.4 0.4 2.9 0.6 4.5 0.6 6.4 0 11.2-4 13-5.5 11.2-9.2 21.5-16 28.1-18.5 5-1.9 10.2-3.3 15.4-4.2 4.9-0.8 9.7-1.2 14.3-1.2 8.4 0 16.3 1.3 23 3.6 8.8 3 13.8 7.3 18.6 11.5 5.2 4.5 11.1 9.6 19.9 9.6q2.2 0 4.4-0.4c6.2-1.2 9.2-4.4 11.1-6.6 1.4-1.4 3.1-3.3 8.3-6.5 8.6-5.3 16.2-7.7 20-8.7 6.5-1.7 13-2.5 19.9-2.5 5.4 0 10.9 0.5 16.9 1.5 5.5 0.9 9.3 1.4 12.8 1.8l0.7 0.1h0.6c1.9 0 4.1-0.5 7.7-1.2 2.7-0.6 5.1-0.9 7.3-0.9 5.2 0 10.4 1.4 14.8 4.1 3.8 2.2 6.2 5 7.7 6.8 2.4 2.9 3.4 4.7 4.2 6.4 1.2 2.5 3.6 7.2 9.5 9.1 1.3 0.5 2.9 0.7 4.5 0.7 10.2 0 16-9 25.6-24 5.5-8.5 12.3-19 20.6-29 6.3-7.6 23.8-26.8 51.3-41.5 13.1-7 27.6-11.9 43.2-14.5 6.9-1.2 14.1-1.8 22.1-1.8 4.8 0 9.7 0.2 15 0.6 4.7 0.4 9.9 1 15.5 1.7 3.8 0.4 7.3 0.8 10.8 1.1 1.8 0.2 3.5 0.3 4.7 0.3q2.1 0 3.6-0.3l0.7-0.1 0.8-0.3q2.7-0.9 6.2-1.4c1.1 0 2.1-0.1 3.1-0.1 4.6 0 9.1 1.3 12.8 3.7l2.6 2.5 5.6 0.1 0.7-0.1c1.8-0.2 3.3-0.3 4.7-0.3 9.3-0.1 17.3-0.8 24.7-2.2 2.5-0.5 4.7-1.2 6.8-2.2l1.4-0.7c2.4-1.2 4.9-2.5 7.8-3.8 3.4-1.4 8-3.1 13.6-3.1q3.4 0 6.8 0.9c12.5 3.2 19.7 14.6 17.1 27.2-0.6 2.4-1.4 5.1-2.6 8.2l-3.6 9.4c-4.7 12.1-9.3 24.2-14 36.2h0.1c-1.5 3.6-1.6 8.5 1.2 12.8 2.7 4 7.1 6.3 11.9 6.3q2.3 0 4.5-0.7l0.6-0.2 0.6-0.3c3.1-1.4 6.4-2.4 9.7-2.9 0.2-0.1 2.8-0.5 6.8-0.5 5.9 0 11.6 1.2 16.9 3.7 2.3 1 4.2 2.3 7 4.2l0.4 0.3c3.8 2.5 6.1 4.1 7.6 5.2 3.2 2.2 4.8 3.3 8.2 3.9 1.5 0.3 2.6 0.4 3.7 0.4 8 0 13.5-4.7 18-8.5 3.4-2.9 6.6-5.7 11.1-7.1 4.3-1.4 8.8-1.6 8.9-1.6 1 0 2.5 0.1 3.9 0.3 1.8 0.2 4.5 0.6 7.5 1.6 1.8 0.6 3.1 1.5 5.6 3.2 1.9 1.2 4 2.6 6.6 4 4.3 2.3 8.1 4.3 13.1 4.3q2 0 4-0.4c4.8-1.2 11.4-4.8 16-15.7l0.2-0.4c0.4-1.2 0.7-2.3 1.1-3.6 0.4-1.3 0.9-3 2-6l0.2-0.5c0.2-0.7 0.4-1.2 0.7-2.2 3.1-9.2-0.8-19.5-9.4-24.8-1.3-0.7-2.9-1.8-4.7-3.6 0-0.1-6.2-6.5-6.6-15.9-0.4-11.2 7.2-21.3 18.3-24 2.7-0.6 5.1-1 7.5-1.2h0.3c2.5-0.2 4.9-0.3 7.3-0.4 3.5-0.2 7.1-0.4 10.5-0.7 4.8-0.4 9-1.1 12.9-2.2 1.5-0.4 2.9-1.1 5.3-2.3l2-1c3.1-1.5 7.2-3.6 12.4-4.7q3-0.6 6-0.6c2.3 0 4.7 0.3 7.3 0.9 2.6 0.6 4.6 1.6 5.2 2q3.3 1.7 5.9 4.5c3.4 3.7 8.2 5.9 13.3 5.9 3.4 0 6.7-1 9.6-2.8 2.1-1.3 4.4-2.4 6.6-3.4 3.7-1.6 11.1-4.2 20.4-4.2 13.9 0 27.3 5.7 36.9 15.6 9.2 9.6 14.1 22.1 13.9 35.3 0.2 13.2-4.9 25.9-14 35.4-4.5 4.5-9.5 8.1-15.1 10.7-0.3 0.2-4.1 2-9.2 3.3-2 0.5-3.7 0.8-4 0.8l-0.5 0.1c-0.7 0.1-2.2 0.3-4.2 0.4-1.6 0.2-2.9 0.2-3.9 0.2-4.5 0-10.5 2-13.9 7.6-3.3 5.2-2.8 11-1.3 14.7 0.3 0.7 0.6 1.7 1 3.2q0.1 0.2 0.1 0.3c0.1 0.4 0.4 1.3 0.7 2.4 0.4 1.6 0.9 3.7 1.3 5.9 1.7 9 2.1 18.5 1.3 29-2.1 30.4-10.7 60.1-25.5 88.3-6.4 12.3-13.6 22.8-21.9 32.2-10.2 11.5-20.8 20-32.2 25.9-12.3 6.5-25.5 9.7-39 9.7-2.9 0-5.6-0.1-8.1-0.3l-1.1-0.1c-9.8-0.9-22-2-36.1-7.1-3.2-1.2-6.5-2.6-9.7-4.1-2.8-1.3-5.9-2-9.1-2-4.6 0-9.2 1.6-12.7 4.4-2.2 1.7-4.7 3.4-7.1 4.6-2.6 1.4-6.9 3.6-13 4.7-2.5 0.5-4.8 0.7-7.2 0.7-7.9 0-14-2.3-16.2-3.3q-3.6-1.5-6.6-3.6c-3.9-2.7-8.5-4.1-13.3-4.1-3.7 0-7.5 0.9-10.9 2.7-8.8 4.6-15.2 6-17 6.4-5.5 1.1-11.4 1.1-11.5 1.1h-2.5c-12.5-0.3-22.4-7.3-22.5-7.4-1.7-1.2-4.1-3.2-6.6-6.2-3.6-4.2-8.8-6.7-14.4-6.7-4.7 0-9.2 1.8-12.7 5.1-2.2 2-4.6 3.9-7.1 5.5-5.9 3.9-11.5 6-14.8 6.8q-3.2 0.7-6.5 0.9c-0.7 0-1.3 0-1.9 0q-0.3 0-0.6 0c-7.7 0-14.8-1.9-21-5.7q-4-2.5-7.2-6.1c-0.3-0.4-1-1.2-1.8-2.2 0 0-0.7-1.2-0.9-1.5-1.2-1.9-2-3.4-2.3-4.2-3.5-7-6.3-12.8-13.4-15.4-2-0.7-4.2-1.1-6.4-1.1-2.9 0-5.7 0.6-8.2 1.8-2.2 1.1-3.4 2.1-5.7 4.1l-3.6 3.1c-0.3 0.3-1.1 0.9-2.1 1.7-1.3 1-3.3 2.4-5.2 3.8-17 12-32.3 17.8-32.5 17.8-17.1 6.3-31.3 7-36.7 7z"/>
		<path id="&lt;Compound Path&gt;" fill-rule="evenodd" class="s1" d="m1622.8 34.5c-11.7-12.2-28.2-19.2-45.3-19.2-12.2 0-21.7 3.7-25 5.1-3.1 1.4-5.9 2.9-8.2 4.3-2.6 1.7-6 1.2-8.1-1.1-2.3-2.4-5.2-4.9-8.9-6.9-0.8-0.4-3.9-2.1-8.3-3.1-3.2-0.7-6.6-1.2-9.8-1.2q-4.2 0-8.4 0.9c-6.5 1.4-11.7 3.9-15.2 5.6l-1.6 0.8c-1.4 0.7-3.1 1.6-3.7 1.8-3.2 0.9-6.7 1.5-10.6 1.8-3.3 0.2-6.8 0.4-10.2 0.6-2.6 0.1-5.2 0.3-7.8 0.5-3 0.2-6.1 0.7-9.5 1.5-16.4 4-27.9 19.1-27.2 35.7 0.6 13.4 8.7 22.4 10 23.7 2.3 2.3 4.6 4.1 6.9 5.4 3.9 2.4 5.8 7 4.3 11.4-0.2 0.9-0.4 1.3-0.7 2.2-2.1 5.8-2.2 7.2-3.1 9.3-0.5 1.4-3.1 7.8-7.9 8.9-2.4 0.6-4.6-0.5-8.8-2.7-5.7-3.1-8.7-6.3-14.1-8.1-1.2-0.4-4.9-1.6-9.9-2.1-2.8-0.3-4.9-0.3-5.4-0.3 0 0-6.1 0.1-12.4 2.1-13.9 4.6-18.4 16.3-26.8 14.9-1.6-0.3-1-0.3-11.6-7.4-3.2-2.2-5.7-3.9-8.9-5.4-6.8-3.2-14.2-4.8-21.9-4.8-4.3 0-7.5 0.4-8.7 0.7-5.4 0.8-9.7 2.5-12.7 3.8-1.1 0.4-2.3 0-2.9-0.9-0.6-0.9-0.2-2-0.2-2.2 4.7-12 9.3-24.1 14-36.1l3.7-9.5c1.4-3.6 2.3-6.9 3-10 3.9-18.7-7.2-36.2-25.7-40.9-3.1-0.8-6.4-1.2-9.6-1.2-7.8 0-14.1 2.3-18.2 4-3.2 1.4-6 2.8-8.5 4.1l-1.2 0.6c-1 0.5-2.3 0.9-3.8 1.2-6.7 1.2-14.1 1.9-22.6 2-2 0-4.1 0.1-6.1 0.4q-0.1 0-0.2 0c-5.7-4.1-12.8-6.3-20.1-6.3-1.4 0-2.9 0.1-4.3 0.2q-4.9 0.7-8.8 2c0 0-0.4 0.1-1.3 0.1q-1.4 0-3.7-0.3c-3.4-0.3-6.8-0.7-10.3-1.1-4.9-0.6-10.5-1.2-16.1-1.7-5.7-0.5-10.9-0.7-15.9-0.7-8.6 0-16.5 0.7-24 2-16.7 2.8-32.5 8.1-46.8 15.7-28.3 15.2-46.8 34.7-54.8 44.3-20.6 24.8-31.1 51-38.2 48.7-2.5-0.8-1.9-4.5-8.2-11.9-2-2.3-5.3-6.2-10.7-9.4-6.2-3.7-13.5-5.6-20.8-5.6-3.1 0-6.3 0.3-9.5 1-1.3 0.3-4.4 1-5.5 1-3.7-0.4-7.7-1-12.1-1.7-6.7-1.1-12.9-1.7-18.9-1.7-8 0-15.4 1-22.7 2.9-4.4 1.1-13.2 3.8-23.3 10-12.5 7.8-10.4 10.6-15.5 11.6-11.1 2.2-14.9-12.6-36.8-20.2-11.7-4.1-23.1-4.2-26.9-4.2q-7.9 0-16.2 1.3-9.1 1.5-17.7 4.8c-10.3 4-23.5 14-31.4 20.5-1.3 1-4.1 3.4-6.6 2.6-1.9-0.6-1.9-2.3-5.7-9-2.4-4.1-3.4-5.3-3-7 0.5-2.2 2.1-5.1 2.1-5.1 0 0 2.7-6.5 3.9-10.1 4.6-13.8 1-27.7-0.1-31.6-0.4-1.2-0.7-2.2-0.8-2.7-2.8-8.6-7.7-16.2-14.7-22.6-8.5-7.8-18.9-12.4-32-14.2q-3.6-0.5-7.3-0.5c-5.6 0-11.4 0.9-17.7 2.7-21 6.2-35.4 23-38.6 46.4-0.9 6.6-0.5 13.3 1 19.8 1 4-1.4 7.4-5.3 7.8-3.7 0.5-6.9-2.6-7-6.4 0-1.5-0.1-3-0.1-4.6-0.2-4.3-1-10.9-4.2-17.7-6-12.9-18.7-20.9-33.7-21.2h-1c-17.5 0-31.7 10.2-37 26.5q-1.8 5.7-2.6 12.1c-0.5 5.1-1.3 7.3-1.9 8.8-0.3 0.6-0.7 2-1.9 3.2-0.3 0.3-1 0.9-1.9 1.2-2.5 1.1-4.4-0.9-8.7-0.8-0.3 0-1.2 0-1.9 0q-1.6 0.1-3.3 0.1h-0.3c-3.3 0.2-7.1 0.3-11.3 0.7-4.6 0.5-9.6 0.7-15.2 0.7-3.3 0-6.8 0-10.7-0.2-8.9-0.4-18-0.6-27.8-0.6-7.3 0-14.9 0.1-23.2 0.4-14.4 0.3-29.4 0.5-45.8 0.5-2.6 0-5.5-0.2-9-0.5-2-0.2-4-0.3-6.1-0.4q-1.3-0.1-2.7-0.2c-3.5-0.2-6-3.6-5.1-7q0.8-2.9 1.3-6.1c2.3-13.6-0.3-27-7.4-38.9-6.1-10.1-18.3-22.7-41.7-25.8-2.3-0.4-4.6-0.5-7-0.5-5.4 0-10.8 0.8-17.2 2.5-5.3 1.4-9.4 2.7-13.9 6-5.4 3.9-6.3 7.1-8.6 6.7-3.7-0.6-2.2-8.8-8.2-16.8-5.8-7.9-14.9-10.6-18.3-11.7-3.9-1.1-8-1.7-12.2-1.7-3.3 0-6.7 0.4-10.2 1.2-2.1 0.4-4.4 0.6-7.1 0.6-2.4 0-5.2-0.2-8.5-0.5-5.9-0.7-11.8-1.3-17.4-1.8 0 0-5-0.4-7.4-0.7-0.7-0.1-1.5-0.1-2.2-0.1h-2c-11 0-21.7 1.3-32 3.9-28.7 7.2-50.7 24.6-63.5 50.4-6.1 12.5-9.5 26.3-10.3 42.3-0.4 7.5 0 14.9 1.3 22.2 0.5 3.1 2.5 13.8 8.5 26.7 5 10.9 11.3 19.7 17.2 26.5 2.3 2.7 1 6.8-2.5 7.8-4.4 1.2-8.5 3.2-12.3 6-10.7 7.9-16.4 20.3-15.6 34 0.4 6.6 0.9 14.4 2 22.6 1.3 9.2 2.7 18.4 4 27.4q1.4 8.9 2.7 18c1 6.6 1.9 12.9 1.8 18.4 0 5.5 0.8 10.9 2.4 16 3.6 11.4 12.3 20.3 23.8 24.3 4.3 1.5 8.9 2.3 13.6 2.3 3.9 0 7.4-0.6 10.2-1.1 3.1-0.6 6.3-0.8 9.3-0.8 1.5 0 2.8 0 4.3 0.1 6.3 0.6 12.7 1.1 19 1.8l6 0.5c3.9 0.4 7.8 0.6 11.6 0.6 16.8 0 29.6-3.5 34.6-5 4.4-1.3 9.7-3.2 15.5-5.9 4.7-2.2 10.3-2 14.9 0.3 5.8 2.9 13.7 6.4 18.7 6.7 2.5 0.1 5.5 0.1 5.5 0.1 3.3 0 6.3-0.1 9-0.2 3.6-0.2 7.2-0.4 10.8-0.6 4.8-0.3 10.1-0.5 15.2-0.7 4-0.1 8.2-0.2 12.3-0.2 11 0 22.2 0.4 33.2 1.3 3.8 0.3 7.7 0.4 11.7 0.4 5.8 0 11.9-0.3 18.9-0.9 4.4-0.4 8.7-0.5 12.8-0.5h0.3c3.9 0 8.1 0.1 12.2 0.2 1.9 0.1 3.8 0.2 5.7 0.2 9.1 0.3 16.6 0.4 23.3 0.4 6.9 0 13.3-0.1 19.4-0.4l2.6-0.1c3-0.1 6.1-0.2 8.8-0.3h3.8c8.1-0.1 16.3-0.2 24.4-0.2 2.8 0 5.6 0 8.4 0 2.9 0.1 6.2 0.3 9.7 0.5 2 0.2 4 0.3 6 0.4q1.5 0.1 3.1 0.2c3.1 0.2 6.6 0.4 10.5 0.4h1.1c6.2-0.1 12.5-1.6 18.2-4.3 1.5-0.7 2.9-1.5 4.2-2.4h0.1c4 2.5 8.3 4.5 12.8 6 8.7 3 17.6 4.5 26.4 4.5 6.4 0 12.8-0.8 19-2.4 2.8-0.7 5.5-1.5 5.5-1.5q2.7-1 5-1.9c1.9-0.8 4-1 6.1-0.3 5.2 1.6 9.2 2.1 12 2.3 1.9 0.1 4.5 0.1 5.2 0.1 3.5 0 6.9-0.1 9.9-0.3h0.2q4.3-0.2 8.6-0.5c3.5-0.3 7.1-0.5 10.4-0.5 6.2-0.2 12.4-0.3 18.5-0.3q4.6 0 9.3 0c3.6 0.1 7.7 0.3 11.6 0.6q3.8 0.2 7.6 0.4l3.2 0.1c4.3 0.2 9.3 0.4 14.3 0.4h0.7c9.8 1.1 14.9-1.2 17.7-3.7 1.7-1.5 4.1-4.4 7.2-4.2 2.2 0.2 3.7 1.7 4.3 2.2 6.9 6.6 27.5 9.5 40.7 9.5 5.4 0 10.9-0.5 16.3-1.4 14.4-2.4 24.6-7.9 28.7-10.2q2.2-1.3 4.1-2.5c4.2-2.7 9.8-2.2 13.3 1.3 2.3 2.2 4.8 4 7.1 5.4 6.3 3.7 13.4 5.7 20.8 5.7q4.9 0 10-1.2c1.9-0.5 3.6-0.7 5.4-0.7q1.6 0 3.3 0.3c6.6 1.1 13.1 1.8 18.9 2.5l2.5 0.2c3.6 0.5 7.2 0.7 10.8 0.7 8.5 0 17-1.1 25.4-3.4 6.3-1.7 20.5-6 33.7-18.3 2.4-2.2 4.4-4.3 6.2-6.4 3.3-3.8 9.3-4 12.7-0.2 3.5 3.9 6.8 6.8 9.5 9 22.3 18.2 47.7 20.1 55.4 20.5 1.9 0.1 3.9 0.2 5.8 0.2 3.4 0 20.1-0.1 40.8-7.7 0 0 16.5-6.1 35.2-19.3 2-1.4 4-2.9 5.6-4 1.4-1.2 2.4-2 2.5-2.1 5.3-4.5 5.7-5 6.7-5.5 1.6-0.8 3.8-0.9 5.6-0.3 2.7 1 4 3.8 6.8 9.4 0.4 0.9 1.4 3 2.9 5.4 0.5 0.6 0.9 1.3 1.4 2.1 1.2 1.6 2.2 2.8 2.6 3.2 3.2 3.7 6.7 6.4 9.8 8.3 8.1 4.9 17.2 7.4 27.1 7.4 1 0 2.1 0 3.2-0.1q4.2-0.2 8.3-1.1c4.7-1 11.7-3.8 18.6-8.3 2.5-1.7 5.6-3.9 8.8-6.9 3-2.8 7.6-2.4 10.2 0.7 3.2 3.8 6.3 6.4 8.6 8 0 0 12.5 9.3 29.4 9.7 0.8 0 1.7 0 2.6 0 0 0 6.9 0 13.6-1.3 4.6-0.9 11.8-3.2 20.2-7.6 3.9-2 8.5-1.7 12.1 0.7 2.5 1.7 5.4 3.4 8.6 4.8 2.2 0.9 10.2 4.2 20.9 4.2q4.7 0 9.2-0.8c8-1.4 13.5-4.4 16.4-5.9 2.5-1.3 5.6-3.2 9-5.8 2.7-2.2 6.4-2.4 9.5-1 4.2 2 7.8 3.4 10.7 4.5 16.1 5.8 29.6 6.9 40.1 7.8 3.1 0.3 6.1 0.4 9.2 0.4 15.4 0 30.4-3.7 44.4-11 12.8-6.6 24.4-16 35.6-28.5 8.9-10.1 16.6-21.4 23.5-34.6 15.5-29.6 24.5-60.8 26.8-92.8 0.9-11.6 0.4-22-1.5-31.9-0.5-2.5-1.1-4.9-1.5-6.8-0.5-1.8-0.8-3-0.8-3-0.7-2.1-1.1-3.4-1.4-4.2-0.1-0.2-1-2.3 0.3-4.3 1.3-2.1 3.7-2.1 4-2.1q1.9 0 4.7-0.2c2.6-0.1 4.6-0.5 5.4-0.6 0.7-0.1 2.8-0.5 5.4-1.1 5.9-1.5 10.4-3.6 11.3-4 9.5-4.4 15.7-10.3 18.5-13.2 11.2-11.7 17.5-27.4 17.3-43.3 0.3-16.3-5.8-31.8-17.2-43.6zm-939.2 283.9c-0.6 3.4-2.1 6-5.2 7.3-2 0.9-4.3 1.4-6.6 1.4-5.6 0-11.2-0.3-16.8-0.6-6.7-0.2-13.4-0.8-20.1-0.9q-14.4-0.2-28.7 0.2c-6.6 0.2-13.1 0.8-19.7 1.1-4.2 0.2-8.4 0.4-12.6 0.2-3.6-0.2-7.1-1.1-9.3-4.5-3.6-5.7-1.3-14.3 6-15.4 4.1-0.7 8.2-0.8 12.3-1 3.8-0.3 7.4-1.1 10.7-3 1.6-1 2.8-2.3 3.7-3.9 1.6-2.9 2.5-6.2 2.8-9.5 0.2-2.9 0.5-5.8 0.5-8.7 0.2-34.7 0.3-69.4 0.4-104.2 0-3.7-0.4-7.4-0.8-11.1-0.1-1.2-0.7-2.4-1.1-3.8-3.8 0.3-7.4 0.4-10.9 0.8-3.6 0.4-7.2 1.1-10.9 1.6-2.3 0.3-4.7 0.1-6.9-0.7-2.6-1-4.4-2.8-5.2-5.6-0.4-1.3-0.6-2.7-0.9-4.2-5.9 1.5-11.8 0.8-17.7 0.9-6.1 0.1-12.3 0-18.5 0-0.9 0-1.8 0.2-2.8 0.2-0.1 0.9-0.2 1.6-0.2 2.3 0 34.3 0 68.7 0.2 103.1 0 6.1 0.7 12.2 1.9 18.3 0.7 3.9 2.1 7.6 4.2 11 1.8 2.8 4.1 4.8 7.7 4.9 2.2 0.1 4-0.6 5.6-1.9 3-2.5 5-5.7 6.8-9.1 3.6-7.2 6-14.9 7.4-22.8 1-5.3 1.6-10.8 2.5-16.2 0.5-2.6 0.7-5.4 2.4-7.7 2.4-3.1 5.6-4.2 9.3-3.6 4 0.5 6.5 2.9 7.5 6.9 0.6 2.3 0.6 4.6 0.4 6.9-1.6 15.5-4.1 30.7-8.9 45.5-2.8 8.2-6.7 15.6-12.2 22.2-6 7.3-13.5 12.2-22.8 14.5-10 2.6-19.8 1.9-29.5-1.4-8.6-3-14.9-8.8-19.7-16.4-3.5-5.7-5.6-12-7.1-18.5-2.1-8.9-3.2-17.9-3.2-27-0.1-29.3-0.1-58.5-0.1-87.7v-20.3c0-3.2 0-3.2-3-3.2-4.9 0-9.7 0.1-14.6 0-2.4-0.1-4.9-0.5-7.3-1.2-1.4-0.4-2.7-0.4-4.1 0-6.9 1.8-12.3 5.9-16.8 11.3-3.1 3.8-5.7 7.9-8 12.3-6.2 12.1-12.5 24.2-18.7 36.3-3.3 6.5-3.4 13.2-0.1 19.7 6.5 12.9 12.9 25.6 19.4 38.4 3 5.8 6 11.6 9.2 17.3 2.6 4.4 5.9 8.3 9.9 11.5 4.2 3.3 9 5.4 14.5 5.8 2.7 0.2 5.5 0.5 8.3 0.8 5.5 0.8 7.8 5.5 7.5 10.2-0.1 3.5-1.2 6.7-4.6 8.4-1.9 0.9-4.2 1.4-6.3 1.5-4.2 0-8.5-0.3-12.8-0.6-5.7-0.3-11.4-0.8-17-0.9-12.4-0.1-24.7 0.1-37 0.2-4.1 0-8.3 0.2-12.4 0.4-13.6 0.6-27.2 0.4-40.7 0-6.3-0.2-12.7-0.5-19-0.5-5 0-10.1 0.3-15.2 0.7-8.7 0.7-17.4 1-26.1 0.4q-24.2-1.8-48.4-1.1c-8.8 0.2-17.6 0.9-26.4 1.3-3.9 0.1-7.9 0.3-11.7 0.1-3.7-0.2-7.3-1.1-9.5-4.6-3.4-5.6-1.5-14.1 5.9-15.3 4.1-0.7 8.3-0.7 12.5-1 3.3-0.3 6.5-0.9 9.5-2.4 2.5-1.3 4.2-3.1 5.4-5.6 1.9-3.9 2.5-8.2 2.5-12.5 0.2-10.8 0.3-21.6 0.3-32.5 0.1-25 0.2-50.1 0.2-75.2 0-3.7-0.2-7.5-0.5-11.2-0.1-1.5-0.7-3-1.1-4.5-2.1 0-3.9-0.2-5.6 0-5.4 0.6-10.7 1.4-16 2.1-2.5 0.3-5 0.2-7.4-0.7-4.2-1.7-6-5.6-5.6-10.1 0.4-4.9 3.4-8 8.3-8.9 16-3.1 31.1-9 46.6-13.5 5.1-1.6 10.3-2.9 15.4-3.8 5.2-1 11 1 13.8 6.2 1.4 2.6 2 5.5 2 8.5 0 8.1-0.3 16.2-0.6 24.3-0.3 9-0.7 18-1.1 27.1-1.5 28.9-0.8 57.9-0.9 86.9 0 3.8 0.5 7.6 0.9 11.4 0 0.6 0.2 1.2 0.4 1.8 1.7 7.3 6.5 11.3 13.8 12.3 5.2 0.8 10.4 0.9 15.6 0.1 6.6-1.1 12.1-4.2 16.6-9.2 4-4.6 7.1-9.7 9.8-15 6.8-13.8 13.6-27.5 20.2-41.4 3-6.4 2.6-13.1-0.6-19.4-5.9-11.8-12-23.6-18.1-35.3-2.3-4.6-4.7-9.1-7.2-13.6-2.9-5.2-6.5-9.8-11.1-13.4-4.4-3.5-9.3-5.7-15-6-2.7-0.1-5.4-0.4-8.1-0.8-5.3-0.8-7.6-5.4-7.5-10.1 0.2-3.5 1.6-6.8 5-8.4 1.9-0.9 4.2-1.5 6.3-1.5 4.1-0.1 8.2 0.3 12.3 0.5 5.6 0.3 11.2 1 16.9 1 15.4 0 30.8-0.2 46.3-0.6 16.3-0.4 32.7-0.4 49.1 0.3 10.1 0.4 20.1 0.4 30.2-0.7 4.3-0.4 8.7-0.4 13-0.6q4-0.1 7.7 1.5c0.6 0.3 1.2 0.3 1.8 0.2 14-2.3 24.2-9.4 29.8-22.6 2.3-5.4 3.4-11 4-16.8 0.2-2.1 0.6-4.3 1.3-6.4 1.7-4.9 5.4-7 10.4-6.9 3.7 0.1 7.1 1.3 8.8 4.8 0.9 2.1 1.4 4.5 1.5 6.8 0.2 6 0 12 0 18 0.1 7.1 0 14.1 0.1 21.2 0 2.6 0.7 3.4 3.3 3.5 5.1 0.2 10.2-0.8 15.3-1.7 4.3-0.7 8.5-1.6 12.9-2.4 3.2-0.5 6.5-0.1 9.6 1.2 4.5 2 6.3 5.9 6.6 10.6 0.1 0.7 0 1.3 0 1.9 7.8-1.3 15.3-3.3 22.7-5.7 9.9-3.1 19.7-6.2 29.6-9.2q5.2-1.6 10.5-2.4c5.2-0.9 11 1 13.8 6 1.4 2.6 2 5.3 2 8.1q0.1 8.6-0.2 17.1c-0.3 10.3-0.7 20.5-1.2 30.8-1.7 29.9-1 59.8-1.1 89.7 0 3.8 0.3 7.7 0.7 11.4 0.1 1.3 0.4 2.5 0.8 3.7 2.1 7.7 6.6 11 15.3 11.9 2.6 0.3 5.3 0.2 8 0.5 2.4 0.2 4.9 0.6 7 2.1 2.9 2.3 4.3 6.1 3.6 9.7zm-276.6-163.7c-2.2-1.1-4.6-1.8-7.1-1.9-6.4-0.2-12.7-0.4-18.9-0.4-3.1 0-6.3 0.3-9.2 1.5-2.7 1.1-3.3 1.8-2.6 4.6 0.8 3.3 1.8 6.5 3.2 9.4 3.9 8.2 8.2 16.1 12.3 24.2 1.4 2.6 2.7 5.1 4.4 8.2 3.6-6.9 7-13.3 10.3-19.7 2.8-5.5 5.5-11 8-16.6 0.9-1.7 1.2-3.8 1.6-5.8 0.3-1.7-0.4-2.8-2-3.5zm-22.2 147.1c-0.2-1.4-0.2-2.7-0.7-3.9-1.4-3.6-2.9-7.3-4.6-10.7-5.1-10.2-10.4-20.2-15.6-30.4-0.3-0.5-0.6-1-1-1.7-0.4 0.8-0.8 1.4-1.1 2-3.6 7.3-7.2 14.5-10.7 21.8-2.5 5.2-4.9 10.4-7.1 15.7-0.8 1.9-0.9 4.1-1.3 6.1-0.3 1.7 0.6 2.7 1.9 3.4 2.3 1.2 4.8 1.7 7.4 2.1 7.2 0.8 14.3 0.7 21.5 0.3 3.3-0.1 6.6-0.4 9.6-1.9 1.2-0.6 2-1.4 1.7-2.8zm0 0c-0.2-1.4-0.2-2.7-0.7-3.9-1.4-3.6-2.9-7.3-4.6-10.7-5.1-10.2-10.4-20.2-15.6-30.4-0.3-0.5-0.6-1-1-1.7-0.4 0.8-0.8 1.4-1.1 2-3.6 7.3-7.2 14.5-10.7 21.8-2.5 5.2-4.9 10.4-7.1 15.7-0.8 1.9-0.9 4.1-1.3 6.1-0.3 1.7 0.6 2.7 1.9 3.4 2.3 1.2 4.8 1.7 7.4 2.1 7.2 0.8 14.3 0.7 21.5 0.3 3.3-0.1 6.6-0.4 9.6-1.9 1.2-0.6 2-1.4 1.7-2.8zm22.2-147.1c-2.2-1.1-4.6-1.8-7.1-1.9-6.4-0.2-12.7-0.4-18.9-0.4-3.1 0-6.3 0.3-9.2 1.5-2.7 1.1-3.3 1.8-2.6 4.6 0.8 3.3 1.8 6.5 3.2 9.4 3.9 8.2 8.2 16.1 12.3 24.2 1.4 2.6 2.7 5.1 4.4 8.2 3.6-6.9 7-13.3 10.3-19.7 2.8-5.5 5.5-11 8-16.6 0.9-1.7 1.2-3.8 1.6-5.8 0.3-1.7-0.4-2.8-2-3.5zm0 0c-2.2-1.1-4.6-1.8-7.1-1.9-6.4-0.2-12.7-0.4-18.9-0.4-3.1 0-6.3 0.3-9.2 1.5-2.7 1.1-3.3 1.8-2.6 4.6 0.8 3.3 1.8 6.5 3.2 9.4 3.9 8.2 8.2 16.1 12.3 24.2 1.4 2.6 2.7 5.1 4.4 8.2 3.6-6.9 7-13.3 10.3-19.7 2.8-5.5 5.5-11 8-16.6 0.9-1.7 1.2-3.8 1.6-5.8 0.3-1.7-0.4-2.8-2-3.5zm-22.2 147.1c-0.2-1.4-0.2-2.7-0.7-3.9-1.4-3.6-2.9-7.3-4.6-10.7-5.1-10.2-10.4-20.2-15.6-30.4-0.3-0.5-0.6-1-1-1.7-0.4 0.8-0.8 1.4-1.1 2-3.6 7.3-7.2 14.5-10.7 21.8-2.5 5.2-4.9 10.4-7.1 15.7-0.8 1.9-0.9 4.1-1.3 6.1-0.3 1.7 0.6 2.7 1.9 3.4 2.3 1.2 4.8 1.7 7.4 2.1 7.2 0.8 14.3 0.7 21.5 0.3 3.3-0.1 6.6-0.4 9.6-1.9 1.2-0.6 2-1.4 1.7-2.8zm0 0c-0.2-1.4-0.2-2.7-0.7-3.9-1.4-3.6-2.9-7.3-4.6-10.7-5.1-10.2-10.4-20.2-15.6-30.4-0.3-0.5-0.6-1-1-1.7-0.4 0.8-0.8 1.4-1.1 2-3.6 7.3-7.2 14.5-10.7 21.8-2.5 5.2-4.9 10.4-7.1 15.7-0.8 1.9-0.9 4.1-1.3 6.1-0.3 1.7 0.6 2.7 1.9 3.4 2.3 1.2 4.8 1.7 7.4 2.1 7.2 0.8 14.3 0.7 21.5 0.3 3.3-0.1 6.6-0.4 9.6-1.9 1.2-0.6 2-1.4 1.7-2.8zm22.2-147.1c-2.2-1.1-4.6-1.8-7.1-1.9-6.4-0.2-12.7-0.4-18.9-0.4-3.1 0-6.3 0.3-9.2 1.5-2.7 1.1-3.3 1.8-2.6 4.6 0.8 3.3 1.8 6.5 3.2 9.4 3.9 8.2 8.2 16.1 12.3 24.2 1.4 2.6 2.7 5.1 4.4 8.2 3.6-6.9 7-13.3 10.3-19.7 2.8-5.5 5.5-11 8-16.6 0.9-1.7 1.2-3.8 1.6-5.8 0.3-1.7-0.4-2.8-2-3.5zm528.1 144.3c-6.3 15.3-17.8 25.2-33.9 29.5-8.5 2.3-17.1 3-25.8 2-6.6-0.8-13.3-1.4-19.9-2.6-6.7-1.1-13.3-0.7-19.9 0.8-3.4 0.9-6.7 0.5-9.7-1.3-3.7-2.2-4.6-5.9-4.8-9.8-0.2-3.8-0.2-7.5-0.4-11.2-0.4-10.1-1.6-20-3.1-30-0.9-6.1-2-12.2-3.1-18.4-0.1-0.7-0.3-1.5-0.8-2.3q-0.3 1.1-0.6 2.3c-2.8 10.5-6 20.9-10.8 30.8-4.9 10.2-11.2 19.4-19.7 27-8.4 7.6-18.2 12.1-29.3 14.1-13.8 2.4-27.1 0.4-39.8-5.7-8.5-4.1-15.4-10.4-21.2-17.9-7.4-9.8-11.7-20.8-14.6-32.6-3.5-14.3-4.9-28.8-4.5-43.5 0.6-19.2 4.1-37.8 11.8-55.4 4.6-10.8 10.9-20.5 19.3-28.7 9.5-9.3 20.7-15.4 33.9-17.6 19.1-3.1 36.2 1.2 50.8 14.1 9.4 8.2 15.2 18.6 18 30.8 1.8 7.9 2.2 15.8 1 23.8-0.7 4.6-1.8 9-4.9 12.7-2.8 3.4-6.2 5.7-10.3 6.9-5.1 1.5-10.2 2.4-15.5 2.4-16.3 0-32.8 0-49.1 0-1.3 0-2.5 0.1-3.7 0.3-2.8 0.6-4.7 2.7-4.7 5.4-0.2 13 0 25.9 4.4 38.3 2.1 6.1 4.6 11.9 8.8 16.9 4.5 5.3 10.1 9.2 17 10.4 10.1 1.8 19-0.9 26.5-8 4.6-4.3 8-9.5 10.9-15 3.6-6.9 6.3-14 8.5-21.4 1-3.1 2.3-6 5.1-8 3.7-2.7 10.5-2.1 13.1 2.1 0.2 0.3 0.5 0.6 0.8 0.9 1.6-1.3 3.3-2.6 5.4-3 3.2-0.7 6.1-0.1 8.6 1.9 1.7 1.3 2.7 3.1 3.4 5.2 3 9.5 5.8 19 9 28.4 2.3 6.6 5.4 12.8 9.3 18.6 2.3 3.2 5 6.2 8.2 8.6 4.8 3.6 10.2 6.1 16.1 7.1 5 0.9 10.2 1.2 15.3 0.7 7.4-0.9 12.4-6 12.8-13.2 0.4-6.9-1.7-13-5.3-18.8-4.1-6.4-9.3-11.9-15-16.8-9.9-8.7-20.1-17.1-30.2-25.6-8-6.8-15.6-14-21.8-22.6-6.9-9.6-10.2-20.3-9.9-32 0.3-13.7 4.6-26 14.2-36.1 6.8-6.9 14.9-11.6 24.4-14.1 9.9-2.5 19.9-2.3 29.9-0.6 4.5 0.7 9.1 1.4 13.6 1.9 5 0.5 9.8-0.4 14.6-1.5 3.5-0.7 6.8-0.4 9.9 1.4 3.8 2.2 4.8 6 5.1 10 0.1 2.7 0 5.4 0 8.1 0 13 0.8 25.9 2.2 38.8 0.4 4 0.9 8 1 12 0.1 2.3-0.3 4.7-1.1 6.9-1.5 4.2-5.8 6.2-9.9 5.7-4.4-0.6-7.1-3.4-8.1-7.7-1.5-5.8-2.7-11.6-4.3-17.4-1.9-7.1-4.8-13.8-8.8-20-5-7.8-11.6-13.6-20.7-16.2-4.2-1.3-8.6-1.6-12.9-1.2-3.7 0.4-6.7 2.4-8.6 5.6-3.4 5.7-3.8 11.7-1.1 17.9 2.2 5.1 6 9 10 12.8 6.8 6.5 14.3 12.2 21.7 18 8 6.2 15.7 12.6 23 19.6 6.7 6.4 12.6 13.4 17.2 21.4 3.8 6.6 5.8 13.8 6.8 21.2 1.6 11.3 0.4 22.4-3.8 32.9zm-174.8-126.6c-0.7-5.4-2.1-10.5-4.8-15.2-1-1.9-2.4-3.6-3.9-5.1-1.7-1.7-3.9-2.5-6.4-2.6-3.4-0.1-6.2 1.2-8.7 3.3-2.7 2.4-4.8 5.3-6.5 8.4-5.5 10.3-7.9 21.3-9 32.6-0.3 3.8 1.9 6.1 5.7 6.1 4 0.1 8 0 12 0v0.2c4.9-0.2 9.8-0.2 14.7-0.4 4.8-0.3 6.9-3.1 7.4-7.3 0.8-6.6 0.3-13.3-0.5-20zm-353.3-17.7c-2.2-1.1-4.6-1.8-7.1-1.9-6.4-0.2-12.7-0.4-18.9-0.4-3.1 0-6.3 0.3-9.2 1.5-2.7 1.1-3.3 1.8-2.6 4.6 0.8 3.3 1.8 6.5 3.2 9.4 3.9 8.2 8.2 16.1 12.3 24.2 1.4 2.6 2.7 5.1 4.4 8.2 3.6-6.9 7-13.3 10.3-19.7 2.8-5.5 5.5-11 8-16.6 0.9-1.7 1.2-3.8 1.6-5.8 0.3-1.7-0.4-2.8-2-3.5zm-22.2 147.1c-0.2-1.4-0.2-2.7-0.7-3.9-1.4-3.6-2.9-7.3-4.6-10.7-5.1-10.2-10.4-20.2-15.6-30.4-0.3-0.5-0.6-1-1-1.7-0.4 0.8-0.8 1.4-1.1 2-3.6 7.3-7.2 14.5-10.7 21.8-2.5 5.2-4.9 10.4-7.1 15.7-0.8 1.9-0.9 4.1-1.3 6.1-0.3 1.7 0.6 2.7 1.9 3.4 2.3 1.2 4.8 1.7 7.4 2.1 7.2 0.8 14.3 0.7 21.5 0.3 3.3-0.1 6.6-0.4 9.6-1.9 1.2-0.6 2-1.4 1.7-2.8zm0 0c-0.2-1.4-0.2-2.7-0.7-3.9-1.4-3.6-2.9-7.3-4.6-10.7-5.1-10.2-10.4-20.2-15.6-30.4-0.3-0.5-0.6-1-1-1.7-0.4 0.8-0.8 1.4-1.1 2-3.6 7.3-7.2 14.5-10.7 21.8-2.5 5.2-4.9 10.4-7.1 15.7-0.8 1.9-0.9 4.1-1.3 6.1-0.3 1.7 0.6 2.7 1.9 3.4 2.3 1.2 4.8 1.7 7.4 2.1 7.2 0.8 14.3 0.7 21.5 0.3 3.3-0.1 6.6-0.4 9.6-1.9 1.2-0.6 2-1.4 1.7-2.8zm22.2-147.1c-2.2-1.1-4.6-1.8-7.1-1.9-6.4-0.2-12.7-0.4-18.9-0.4-3.1 0-6.3 0.3-9.2 1.5-2.7 1.1-3.3 1.8-2.6 4.6 0.8 3.3 1.8 6.5 3.2 9.4 3.9 8.2 8.2 16.1 12.3 24.2 1.4 2.6 2.7 5.1 4.4 8.2 3.6-6.9 7-13.3 10.3-19.7 2.8-5.5 5.5-11 8-16.6 0.9-1.7 1.2-3.8 1.6-5.8 0.3-1.7-0.4-2.8-2-3.5zm353.3 17.7c-0.7-5.4-2.1-10.5-4.8-15.2-1-1.9-2.4-3.6-3.9-5.1-1.7-1.7-3.9-2.5-6.4-2.6-3.4-0.1-6.2 1.2-8.7 3.3-2.7 2.4-4.8 5.3-6.5 8.4-5.5 10.3-7.9 21.3-9 32.6-0.3 3.8 1.9 6.1 5.7 6.1 4 0.1 8 0 12 0v0.2c4.9-0.2 9.8-0.2 14.7-0.4 4.8-0.3 6.9-3.1 7.4-7.3 0.8-6.6 0.3-13.3-0.5-20zm0 0c-0.7-5.4-2.1-10.5-4.8-15.2-1-1.9-2.4-3.6-3.9-5.1-1.7-1.7-3.9-2.5-6.4-2.6-3.4-0.1-6.2 1.2-8.7 3.3-2.7 2.4-4.8 5.3-6.5 8.4-5.5 10.3-7.9 21.3-9 32.6-0.3 3.8 1.9 6.1 5.7 6.1 4 0.1 8 0 12 0v0.2c4.9-0.2 9.8-0.2 14.7-0.4 4.8-0.3 6.9-3.1 7.4-7.3 0.8-6.6 0.3-13.3-0.5-20zm-353.3-17.7c-2.2-1.1-4.6-1.8-7.1-1.9-6.4-0.2-12.7-0.4-18.9-0.4-3.1 0-6.3 0.3-9.2 1.5-2.7 1.1-3.3 1.8-2.6 4.6 0.8 3.3 1.8 6.5 3.2 9.4 3.9 8.2 8.2 16.1 12.3 24.2 1.4 2.6 2.7 5.1 4.4 8.2 3.6-6.9 7-13.3 10.3-19.7 2.8-5.5 5.5-11 8-16.6 0.9-1.7 1.2-3.8 1.6-5.8 0.3-1.7-0.4-2.8-2-3.5zm-22.2 147.1c-0.2-1.4-0.2-2.7-0.7-3.9-1.4-3.6-2.9-7.3-4.6-10.7-5.1-10.2-10.4-20.2-15.6-30.4-0.3-0.5-0.6-1-1-1.7-0.4 0.8-0.8 1.4-1.1 2-3.6 7.3-7.2 14.5-10.7 21.8-2.5 5.2-4.9 10.4-7.1 15.7-0.8 1.9-0.9 4.1-1.3 6.1-0.3 1.7 0.6 2.7 1.9 3.4 2.3 1.2 4.8 1.7 7.4 2.1 7.2 0.8 14.3 0.7 21.5 0.3 3.3-0.1 6.6-0.4 9.6-1.9 1.2-0.6 2-1.4 1.7-2.8zm0 0c-0.2-1.4-0.2-2.7-0.7-3.9-1.4-3.6-2.9-7.3-4.6-10.7-5.1-10.2-10.4-20.2-15.6-30.4-0.3-0.5-0.6-1-1-1.7-0.4 0.8-0.8 1.4-1.1 2-3.6 7.3-7.2 14.5-10.7 21.8-2.5 5.2-4.9 10.4-7.1 15.7-0.8 1.9-0.9 4.1-1.3 6.1-0.3 1.7 0.6 2.7 1.9 3.4 2.3 1.2 4.8 1.7 7.4 2.1 7.2 0.8 14.3 0.7 21.5 0.3 3.3-0.1 6.6-0.4 9.6-1.9 1.2-0.6 2-1.4 1.7-2.8zm22.2-147.1c-2.2-1.1-4.6-1.8-7.1-1.9-6.4-0.2-12.7-0.4-18.9-0.4-3.1 0-6.3 0.3-9.2 1.5-2.7 1.1-3.3 1.8-2.6 4.6 0.8 3.3 1.8 6.5 3.2 9.4 3.9 8.2 8.2 16.1 12.3 24.2 1.4 2.6 2.7 5.1 4.4 8.2 3.6-6.9 7-13.3 10.3-19.7 2.8-5.5 5.5-11 8-16.6 0.9-1.7 1.2-3.8 1.6-5.8 0.3-1.7-0.4-2.8-2-3.5zm353.3 17.7c-0.7-5.4-2.1-10.5-4.8-15.2-1-1.9-2.4-3.6-3.9-5.1-1.7-1.7-3.9-2.5-6.4-2.6-3.4-0.1-6.2 1.2-8.7 3.3-2.7 2.4-4.8 5.3-6.5 8.4-5.5 10.3-7.9 21.3-9 32.6-0.3 3.8 1.9 6.1 5.7 6.1 4 0.1 8 0 12 0v0.2c4.9-0.2 9.8-0.2 14.7-0.4 4.8-0.3 6.9-3.1 7.4-7.3 0.8-6.6 0.3-13.3-0.5-20zm0 0c-0.7-5.4-2.1-10.5-4.8-15.2-1-1.9-2.4-3.6-3.9-5.1-1.7-1.7-3.9-2.5-6.4-2.6-3.4-0.1-6.2 1.2-8.7 3.3-2.7 2.4-4.8 5.3-6.5 8.4-5.5 10.3-7.9 21.3-9 32.6-0.3 3.8 1.9 6.1 5.7 6.1 4 0.1 8 0 12 0v0.2c4.9-0.2 9.8-0.2 14.7-0.4 4.8-0.3 6.9-3.1 7.4-7.3 0.8-6.6 0.3-13.3-0.5-20zm-353.3-17.7c-2.2-1.1-4.6-1.8-7.1-1.9-6.4-0.2-12.7-0.4-18.9-0.4-3.1 0-6.3 0.3-9.2 1.5-2.7 1.1-3.3 1.8-2.6 4.6 0.8 3.3 1.8 6.5 3.2 9.4 3.9 8.2 8.2 16.1 12.3 24.2 1.4 2.6 2.7 5.1 4.4 8.2 3.6-6.9 7-13.3 10.3-19.7 2.8-5.5 5.5-11 8-16.6 0.9-1.7 1.2-3.8 1.6-5.8 0.3-1.7-0.4-2.8-2-3.5zm-22.2 147.1c-0.2-1.4-0.2-2.7-0.7-3.9-1.4-3.6-2.9-7.3-4.6-10.7-5.1-10.2-10.4-20.2-15.6-30.4-0.3-0.5-0.6-1-1-1.7-0.4 0.8-0.8 1.4-1.1 2-3.6 7.3-7.2 14.5-10.7 21.8-2.5 5.2-4.9 10.4-7.1 15.7-0.8 1.9-0.9 4.1-1.3 6.1-0.3 1.7 0.6 2.7 1.9 3.4 2.3 1.2 4.8 1.7 7.4 2.1 7.2 0.8 14.3 0.7 21.5 0.3 3.3-0.1 6.6-0.4 9.6-1.9 1.2-0.6 2-1.4 1.7-2.8zm0 0c-0.2-1.4-0.2-2.7-0.7-3.9-1.4-3.6-2.9-7.3-4.6-10.7-5.1-10.2-10.4-20.2-15.6-30.4-0.3-0.5-0.6-1-1-1.7-0.4 0.8-0.8 1.4-1.1 2-3.6 7.3-7.2 14.5-10.7 21.8-2.5 5.2-4.9 10.4-7.1 15.7-0.8 1.9-0.9 4.1-1.3 6.1-0.3 1.7 0.6 2.7 1.9 3.4 2.3 1.2 4.8 1.7 7.4 2.1 7.2 0.8 14.3 0.7 21.5 0.3 3.3-0.1 6.6-0.4 9.6-1.9 1.2-0.6 2-1.4 1.7-2.8zm22.2-147.1c-2.2-1.1-4.6-1.8-7.1-1.9-6.4-0.2-12.7-0.4-18.9-0.4-3.1 0-6.3 0.3-9.2 1.5-2.7 1.1-3.3 1.8-2.6 4.6 0.8 3.3 1.8 6.5 3.2 9.4 3.9 8.2 8.2 16.1 12.3 24.2 1.4 2.6 2.7 5.1 4.4 8.2 3.6-6.9 7-13.3 10.3-19.7 2.8-5.5 5.5-11 8-16.6 0.9-1.7 1.2-3.8 1.6-5.8 0.3-1.7-0.4-2.8-2-3.5zm353.3 17.7c-0.7-5.4-2.1-10.5-4.8-15.2-1-1.9-2.4-3.6-3.9-5.1-1.7-1.7-3.9-2.5-6.4-2.6-3.4-0.1-6.2 1.2-8.7 3.3-2.7 2.4-4.8 5.3-6.5 8.4-5.5 10.3-7.9 21.3-9 32.6-0.3 3.8 1.9 6.1 5.7 6.1 4 0.1 8 0 12 0v0.2c4.9-0.2 9.8-0.2 14.7-0.4 4.8-0.3 6.9-3.1 7.4-7.3 0.8-6.6 0.3-13.3-0.5-20zm789.8 18.2c-2.1 28.9-10.3 56.1-23.7 81.7-5.4 10.4-11.9 20.2-19.6 28.9-7.9 8.9-16.8 16.7-27.5 22.3-11.8 6.2-24.5 8.8-37.9 7.5-11.7-1.1-23.1-3.2-34.3-6.7-3.6-1.1-7.2-2.5-10.3-4.8-3.4-2.4-4.5-5.2-3.4-9.1 0.8-2.6 1.8-5.2 3-7.6 4.5-9.3 8.8-18.7 12.2-28.5 6.5-19.4 12.9-38.8 19.4-58.2q22.5-67.2 44.9-134.4c1-3.1 1.7-6.4 2.3-9.7 0.5-3.1-0.3-4.1-3.5-4.4-2.9-0.2-5.8-0.1-8.7-0.1-3.3 0-6.7 0.2-10 0.2-1.3 0-2.7-0.2-3.9-0.4-4.5-0.9-5.6-4-5.8-6.9-0.1-3.5 2.3-6.3 5.6-7.2 1.5-0.3 3.1-0.6 4.6-0.7 6.2-0.4 12.4-0.6 18.5-1.1 5.3-0.4 10.6-1.3 15.8-2.7 3.7-1.1 7.1-2.9 10.5-4.6 2.6-1.3 5.3-2.6 8.3-3.2 2-0.4 3.9-0.3 5.9 0.1 3.5 0.8 5 4.8 4.4 7.3-0.4 1.6-0.8 3.2-1.4 4.7-9.7 26.6-19.4 53.2-29.3 79.7-6.5 17.4-13.2 34.8-19.8 52.2-0.3 0.7-0.5 1.4-0.8 2.1q0.2 0.1 0.4 0.3 1.9-3 3.8-5.9c5.7-8.6 11.8-17 18.8-24.7 5-5.5 10.5-10.6 17-14.4 4.7-2.8 9.8-4.7 15.3-4.8 9.6-0.1 17.3 3.9 22.4 12.3 3.1 5 4.6 10.5 5.6 16.2 1.6 8.1 1.8 16.4 1.2 24.6zm27.3-78.6c-18.9 0-34.2-15.3-34.2-34.2 0-19 15.3-34.3 34.2-34.3 19 0 34.3 15.3 34.3 34.3 0 18.9-15.3 34.2-34.3 34.2zm-11-55.3c3.7 0 7.3-0.1 11 0 2.1 0.1 4.3 0.3 6.4 0.9 3.8 1 6.5 3.5 7.2 7.4 0.7 3.8 0.5 7.6-2.7 10.4-1.3 1.1-2.8 2-4.3 3 2.6 3 4.6 6.5 6.3 10.2 0.2 0.5 0.5 1 0.9 1.4 0.6 0.5 1.3 1.3 2 1.4 1.4 0.2 2.4 0.9 2.9 2.2 7.7-8.9 8-21.8 0.3-31.5-7-8.9-20.9-11.5-30-5.4zm30 5.4c-7-8.9-20.9-11.5-30-5.4 3.7 0 7.3-0.1 11 0 2.1 0.1 4.3 0.3 6.4 0.9 3.8 1 6.5 3.5 7.2 7.4 0.7 3.8 0.5 7.6-2.7 10.4-1.3 1.1-2.8 2-4.3 3 2.6 3 4.6 6.5 6.3 10.2 0.2 0.5 0.5 1 0.9 1.4 0.6 0.5 1.3 1.3 2 1.4 1.4 0.2 2.4 0.9 2.9 2.2 7.7-8.9 8-21.8 0.3-31.5zm-6.4 34.5c-4.1-0.2-7.5-1.6-9.2-5.6-1-2.5-2.3-4.8-3.4-7.2-0.4-0.6-0.6-1.5-1.7-2.2 0.3 3.4-0.3 6.4 0.5 9.5 0.9 0.2 1.6 0.3 2.3 0.4 1.7 0.3 2.4 1.1 2.4 2.7 0 1.5-0.7 2.2-2.5 2.4-0.3 0.1-0.6 0-0.9 0-4.2 0-8.4 0.1-12.6 0-0.5 0-0.9 0.1-1.4 0-1.6-0.3-2.2-1.3-2.1-2.9 0.2-1.4 0.7-1.9 2.6-2.2 2.2-0.3 2.3-0.4 2.3-2.3q0.1-12.7 0-25.5c0-1.8-0.1-1.9-2-2.1-1.4-0.1-2.5-0.5-3-2.2-6.3 5.3-10 15.2-7.7 24 2.8 10.6 9.8 16.7 20.6 18.7 5.6 1.1 15.6-1.7 18.3-5.3q-0.1 0-0.2-0.1-1.1 0-2.3-0.1zm0 0c-4.1-0.2-7.5-1.6-9.2-5.6-1-2.5-2.3-4.8-3.4-7.2-0.4-0.6-0.6-1.5-1.7-2.2 0.3 3.4-0.3 6.4 0.5 9.5 0.9 0.2 1.6 0.3 2.3 0.4 1.7 0.3 2.4 1.1 2.4 2.7 0 1.5-0.7 2.2-2.5 2.4-0.3 0.1-0.6 0-0.9 0-4.2 0-8.4 0.1-12.6 0-0.5 0-0.9 0.1-1.4 0-1.6-0.3-2.2-1.3-2.1-2.9 0.2-1.4 0.7-1.9 2.6-2.2 2.2-0.3 2.3-0.4 2.3-2.3q0.1-12.7 0-25.5c0-1.8-0.1-1.9-2-2.1-1.4-0.1-2.5-0.5-3-2.2-6.3 5.3-10 15.2-7.7 24 2.8 10.6 9.8 16.7 20.6 18.7 5.6 1.1 15.6-1.7 18.3-5.3q-0.1 0-0.2-0.1-1.1 0-2.3-0.1zm6.4-34.5c-7-8.9-20.9-11.5-30-5.4 3.7 0 7.3-0.1 11 0 2.1 0.1 4.3 0.3 6.4 0.9 3.8 1 6.5 3.5 7.2 7.4 0.7 3.8 0.5 7.6-2.7 10.4-1.3 1.1-2.8 2-4.3 3 2.6 3 4.6 6.5 6.3 10.2 0.2 0.5 0.5 1 0.9 1.4 0.6 0.5 1.3 1.3 2 1.4 1.4 0.2 2.4 0.9 2.9 2.2 7.7-8.9 8-21.8 0.3-31.5zm-76.5 114.6c-0.2-2.9-0.8-5.7-2.1-8.4-1.4-2.6-3.2-3.6-6.1-3.2-1.3 0.1-2.7 0.5-3.8 1-2.5 1.4-5 2.7-7.2 4.3-6.3 4.7-11.6 10.5-16.4 16.6-14.2 17.8-25.3 37.4-34 58.3-3.9 9.3-7 19-10.4 28.5-3 8.2-5.8 16.5-8.8 24.6-1.1 3.2-0.5 5.9 1.7 8.2 1.5 1.7 3.4 3.2 5.4 4.4 7.1 4.2 14.6 4.4 22.3 1.9 7.2-2.2 13.2-6.6 18.5-11.8 5.9-5.6 10.6-12.1 14.7-19 7.5-12.6 13.2-26.1 17.6-40.1 5.6-17.8 8.8-35.9 9.2-56-0.2-2.2-0.3-5.8-0.6-9.3zm-793.2 23.2c4 0.1 8 0 12 0v0.2c4.9-0.2 9.8-0.2 14.7-0.4 4.8-0.3 6.9-3.1 7.4-7.3 0.8-6.6 0.3-13.3-0.5-20-0.7-5.4-2.1-10.5-4.8-15.2-1-1.9-2.4-3.6-3.9-5.1-1.7-1.7-3.9-2.5-6.4-2.6-3.4-0.1-6.2 1.2-8.7 3.3-2.7 2.4-4.8 5.3-6.5 8.4-5.5 10.3-7.9 21.3-9 32.6-0.3 3.8 1.9 6.1 5.7 6.1zm-319.7-45.2c-2.2-1.1-4.6-1.8-7.1-1.9-6.4-0.2-12.7-0.4-18.9-0.4-3.1 0-6.3 0.3-9.2 1.5-2.7 1.1-3.3 1.8-2.6 4.6 0.8 3.3 1.8 6.5 3.2 9.4 3.9 8.2 8.2 16.1 12.3 24.2 1.4 2.6 2.7 5.1 4.4 8.2 3.6-6.9 7-13.3 10.3-19.7 2.8-5.5 5.5-11 8-16.6 0.9-1.7 1.2-3.8 1.6-5.8 0.3-1.7-0.4-2.8-2-3.5zm-22.9 143.2c-1.4-3.6-2.9-7.3-4.6-10.7-5.1-10.2-10.4-20.2-15.6-30.4-0.3-0.5-0.6-1-1-1.7-0.4 0.8-0.8 1.4-1.1 2-3.6 7.3-7.2 14.5-10.7 21.8-2.5 5.2-4.9 10.4-7.1 15.7-0.8 1.9-0.9 4.1-1.3 6.1-0.3 1.7 0.6 2.7 1.9 3.4 2.3 1.2 4.8 1.7 7.4 2.1 7.2 0.8 14.3 0.7 21.5 0.3 3.3-0.1 6.6-0.4 9.6-1.9 1.2-0.6 2-1.4 1.7-2.8-0.2-1.4-0.2-2.7-0.7-3.9zm0 0c-1.4-3.6-2.9-7.3-4.6-10.7-5.1-10.2-10.4-20.2-15.6-30.4-0.3-0.5-0.6-1-1-1.7-0.4 0.8-0.8 1.4-1.1 2-3.6 7.3-7.2 14.5-10.7 21.8-2.5 5.2-4.9 10.4-7.1 15.7-0.8 1.9-0.9 4.1-1.3 6.1-0.3 1.7 0.6 2.7 1.9 3.4 2.3 1.2 4.8 1.7 7.4 2.1 7.2 0.8 14.3 0.7 21.5 0.3 3.3-0.1 6.6-0.4 9.6-1.9 1.2-0.6 2-1.4 1.7-2.8-0.2-1.4-0.2-2.7-0.7-3.9zm209.8-226.7c2.9-7.9 8.5-13.3 16.7-15.7 4.3-1.2 8.6-1.9 13.1-1.3 6.2 0.8 12 2.7 16.7 7 3.2 2.9 5.6 6.3 6.9 10.4 1.9 5.9 2.4 11.8 0.7 17.9-2.6 9-8.4 14.9-17.2 17.8-3.4 1.1-7 1.4-9.4 1.9-7.8-0.5-14.1-1.8-19.5-6.1-4.1-3.2-6.9-7.2-8.5-12.2-2.1-6.7-1.9-13.3 0.5-19.7zm-373.8-7.5c3.3-4 7.5-6.8 12.5-8.2 4.3-1.2 8.7-1.9 13.2-1.3 8.8 1.2 16.3 4.5 21.1 12.4 3.6 6 5 12.5 3.8 19.5-0.7 4.3-2.1 8.4-4.8 12q-4.3 5.7-10.7 8.4c-4.1 1.7-8.5 2.5-13.5 2.6-4.6-0.3-9.7-1.1-14.3-3.7-7.3-4-11.5-10.2-12.9-18.4-1.4-8.6 0.2-16.4 5.6-23.3zm-82.6 263.4c-11.6 3.4-23.5 4.5-35.6 3.4-8.5-0.8-16.9-1.6-25.4-2.3-7-0.6-14-0.3-21 1-3.1 0.6-6.2 1-9.4-0.1-3.1-1.1-5.2-3.1-6.2-6.2q-1-3.4-0.9-7.1c0-7.6-1.1-15.2-2.2-22.8-2.1-15-4.5-30-6.6-45-0.9-6.8-1.4-13.6-1.8-20.5-0.2-3.7 0.9-7.2 4.2-9.6 4.3-3.2 10.8-1.9 13.9 1.9 1.4 1.8 2.2 3.8 2.7 6.1 2.5 11 5.3 22 8.9 32.9 3.2 9.6 6.7 19.2 12.1 28 3 4.8 6.5 9.1 11 12.6 5.5 4.4 12 7.1 18.9 8.5 6.8 1.5 13.7 1.9 20.5 1.5 9.9-0.6 17.6-5.1 22.7-13.6 5.3-8.9 6.7-18.6 5.8-28.8-1-12.2-6.7-22.4-14.3-31.6-7.2-8.9-15.7-16.4-24.6-23.5-8.9-7-17.8-13.7-26.7-20.6-7.8-6.1-15.5-12.3-22.6-19.3-8.8-8.6-16.7-18-22.1-29.3-5.2-11.2-7.7-23-7.1-35.3 0.6-10.9 2.7-21.4 7.5-31.2 9.4-18.8 24.7-30.4 45-35.5 8.8-2.2 17.7-3.2 26.7-3 8.1 0.8 16.1 1.4 24.2 2.4 8.3 0.9 16.6 1.2 24.9-0.6 2.7-0.6 5.5-0.7 8.3 0.1 3.6 1 5.8 3.2 6.7 6.7 0.5 2.2 0.8 4.5 0.8 6.7 0.2 11.7 0.9 23.3 2 35 1.3 13.8 2.6 27.6 3.8 41.4 0.2 3.2-0.3 6.4-2.2 9.1-2.1 3.1-5.6 4.3-9.4 3.6-4.7-0.9-7.3-3.9-8.3-8.3-1.5-6.3-2.5-12.5-3.9-18.8-2.6-11.6-5.7-23.1-11.2-33.8-3.3-6.3-7.6-11.8-13.7-15.5-5-3-10.4-5-16.3-5.5-5.2-0.4-10.4-0.7-15.6-0.8-4.4-0.1-8.6 1-12.6 2.9-6.3 3.3-10.4 8.4-13.1 14.7-2.9 6.9-3.3 14.1-2.4 21.4 0.9 7.9 4.7 14.6 9.3 20.8 6 7.9 13.1 14.7 20.8 20.9 10.2 8.2 20.7 16.1 31.2 24.2 9.5 7.3 19 14.8 27.5 23.5 9 9.4 16.9 19.6 21.9 31.8 5.5 13.6 7.7 27.8 6.1 42.5-1 9.6-3 19-7.2 27.6-9.4 19.1-24.6 31.4-45 37.4zm269.5-172.4c-2.2-1.1-4.6-1.8-7.1-1.9-6.4-0.2-12.7-0.4-18.9-0.4-3.1 0-6.3 0.3-9.2 1.5-2.7 1.1-3.3 1.8-2.6 4.6 0.8 3.3 1.8 6.5 3.2 9.4 3.9 8.2 8.2 16.1 12.3 24.2 1.4 2.6 2.7 5.1 4.4 8.2 3.6-6.9 7-13.3 10.3-19.7 2.8-5.5 5.5-11 8-16.6 0.9-1.7 1.2-3.8 1.6-5.8 0.3-1.7-0.4-2.8-2-3.5zm353.3 17.7c-0.7-5.4-2.1-10.5-4.8-15.2-1-1.9-2.4-3.6-3.9-5.1-1.7-1.7-3.9-2.5-6.4-2.6-3.4-0.1-6.2 1.2-8.7 3.3-2.7 2.4-4.8 5.3-6.5 8.4-5.5 10.3-7.9 21.3-9 32.6-0.3 3.8 1.9 6.1 5.7 6.1 4 0.1 8 0 12 0v0.2c4.9-0.2 9.8-0.2 14.7-0.4 4.8-0.3 6.9-3.1 7.4-7.3 0.8-6.6 0.3-13.3-0.5-20zm369.8 99.9c-7.8 10.2-16.3 19.9-26.1 28.3-12.3 10.7-25.6 20.1-41.2 25.8-11.3 4.1-23 6.5-35.2 5.8-14.4-0.8-27.7-4.7-39.1-14.1-4.8-3.9-8.7-8.6-12.2-13.7-5.6-8-8.9-17.1-11.2-26.5-3.5-14.5-4.4-29.2-3.2-44.1 1.9-25.5 8.8-49.9 18.9-73.3 9.9-23.1 22.9-44.2 39.5-63.1 13.4-15.4 28.7-28.3 46.8-37.9 12-6.4 24.7-10.6 38.1-12.8 11-1.9 22-1.8 33.1-1 8.6 0.6 17.2 2 25.8 2.8 5.6 0.5 11.2 0.6 16.6-1.2q1.6-0.5 3.2-0.7c4.6-0.5 8 2.7 7.6 7.3-0.2 1.4-0.5 2.9-1 4.3-7.1 21.7-12 43.9-16.5 66.3-1.1 5.8-2.5 11.6-3.7 17.3-0.4 2.2-1.4 4-2.8 5.7-3.4 4-9.5 3.7-11.8-0.6-1.1-1.9-1.5-4.1-1-6.3q1.2-6.2 2.2-12.4c1.7-9.4 3-18.8 3.4-28.3 0.3-6.6 0.2-13.2-1.7-19.7-1.3-4.4-3.4-8.4-6.9-11.4-3.5-3-7.7-4.7-12.2-5.8-6.7-1.5-13.6-1.6-20.4-1.5-19.2 0.3-35.8 7.6-50.8 18.9-13.7 10.1-24.9 22.6-34.4 36.6-17.6 25.9-29.2 54.3-35.8 84.9-2.6 12.6-4 26.6-4.1 39.1 0.1 11.1 0.8 21.8 3.6 32.3 2.4 9 6.1 17.5 12.7 24.4 5.9 6.2 13.2 9.8 21.5 11.2 12.7 2.3 24.6-0.1 36.2-5.3 11.4-5.1 21.4-12.2 30.4-20.6 17.7-16.3 31.9-35.2 43.1-56.4 3-5.5 5.5-11.3 8.2-17 0.7-1.3 1.4-2.6 2.2-3.8 1.5-2.5 5.4-4.2 9.1-2.8 2.6 1 4.2 3.8 3.7 6.9-0.2 1.4-0.6 2.9-1.2 4.2-8.7 20.8-19.8 40.2-33.4 58.2zm113.5-32.1c-0.3 1.9-0.9 3.7-1.7 5.4-6.4 14-12.7 28-20 41.6-5.7 10.4-11.9 20.3-19.7 29.2-2.8 3.2-5.9 6-9.4 8.4-3.7 2.6-7.9 4.2-12.4 4.5-4.9 0.2-9.6-0.7-13.9-3.3-4.5-2.8-6.5-7.1-7.4-12.1-0.9-5-0.3-9.8 0.7-14.6 1.6-8.1 4.4-15.9 6.9-23.7 21.1-65.3 42.2-130.6 63.2-195.9 0.9-2.8 1.8-5.6 1.8-8.7-0.1-2.3-0.6-3-3-3.3-1.8-0.2-3.5-0.3-5.4-0.3-4.5 0.1-9.2 0.3-13.7 0.3-1.5 0-3-0.2-4.4-0.5-3.4-0.7-5.4-3.2-5.5-6.6 0-3.4 2.1-6.5 5.2-7.2 2.2-0.6 4.5-0.9 6.7-1 9.2 0 18.4-0.7 27.5-2.4 4-0.7 7.8-2 11.4-3.8 2.7-1.3 5.3-2.7 8-3.9 3.1-1.3 6.3-2.3 9.7-1.4 3.9 0.9 5.8 3.8 5 7.7-0.4 1.9-1 3.7-1.7 5.5-9.4 24.1-19 48.1-27.3 72.5-6.3 18.3-12.2 36.8-18.3 55.2-9.7 29.8-19.5 59.6-29.2 89.4-1.9 5.8-3.8 11.7-5.6 17.5-1 3.5-1.6 7-1 10.8 1.7 0.4 2.9-0.5 3.9-1.4 1.8-1.6 3.4-3.3 4.9-5.1 5-6.1 9-12.9 12.5-19.9q5.9-11.6 11.6-23.2c1.4-2.8 2.6-5.7 4-8.4 0.9-1.8 1.9-3.7 3.1-5.2 2.3-2.8 5.2-4 8.9-3.2 3.6 0.8 5 4.3 4.6 7.1zm138.4 59.2c-4.8 7.7-9.8 15.2-16.2 21.7-3 3-6.2 5.7-9.9 7.8-7.2 3.9-14.8 4-22.3 1-4.7-1.9-7.6-5.5-8.9-10.4-1.7-6.5-1-12.9 0.8-19.2 1.8-6.5 4-12.9 6-19.4 0.3-0.8 0.6-1.7 0.9-2.6-0.2 0-0.3-0.1-0.4-0.1-0.5 0.6-1 1.3-1.5 2-4.6 6.5-8.9 13.1-13.8 19.4-6.4 8.3-13.2 16.2-21.7 22.4-8.4 6.2-17.7 9.7-28.1 9.2-8.4-0.2-15.4-3.5-19.8-11.1-2.2-3.8-3-8-3.3-12.3-0.3-5.8 0.8-11.4 2.1-16.9 3-13 7.5-25.5 12.7-37.8 8.3-19.3 16.8-38.5 25.1-57.8 2.6-6.1 5.2-12.3 7.6-18.6 0.9-2.4 1.2-5.1 1.6-7.7 0.2-0.8 0-1.6 0-2.4-1.9-0.5-3 0.4-4.2 1-3.3 1.9-5.9 4.7-8.3 7.4-5.5 6.2-10.2 12.9-14.3 20-5.3 8.9-10.3 18.1-15.4 27.2-0.8 1.5-1.7 3-2.7 4.4-2.1 3.2-5.9 4.7-10.3 3.2-2.6-0.9-4.3-4-3.7-6.9 0.3-1.4 0.7-2.9 1.4-4.2 9.3-18.5 19.2-36.9 31.4-53.8 5.2-7.2 10.8-14.1 17.7-19.8 4.7-3.7 9.6-7 15.7-7.9 6.6-1 12.9 0.1 18.4 4.2 3.7 2.8 5.2 7 5.7 11.6 0.6 5.5-0.2 10.9-1.6 16.1-2.2 8.5-5.5 16.4-8.9 24.4-8.1 18.6-16.3 37.2-24.4 55.8-4.9 11.2-9.4 22.6-12.6 34.4-1.2 4.5-1.9 8.9-1.7 13.6 0 0.7 0 1.4 0.2 2.1 0.3 1.9 1.2 2.8 3.3 2.9 2.5 0.2 4.9-0.1 7.3-1.1 6-2.4 11.1-6.3 15.9-10.5 5.6-5 10.8-10.4 15.4-16.3 10.5-13.3 19.4-27.6 26.9-42.9 6.7-13.6 12.5-27.6 16.8-42.2 2.8-9.2 4-18.7 4.6-28.3 0.2-2.7 0.5-5.4 1.1-8.1 1.9-8.3 7.1-13.3 15.5-15 3.7-0.8 7.2-0.5 10.6 0.6 4 1.3 6.6 4 8 8 1.6 5 1.1 10 0.1 15-1.7 8.3-4.8 16.2-7.6 24.2-9.9 28.1-19.8 56.2-29.6 84.4-2.5 7.1-4.9 14.3-7.2 21.4-1 2.9-1.4 5.9-1.3 9 0 0.5 0.1 1.1 0.2 1.7 1.8 0.5 3-0.6 4.2-1.6 1.5-1.4 3-2.9 4.4-4.5 4.7-5.5 8.5-11.7 11.8-18.1 5.7-10.7 10.9-21.6 16.4-32.3 1.1-2.1 2.3-4.3 3.8-6.2 2.2-2.8 5.2-3.9 8.9-3 3.3 0.9 4.8 4 4.5 7-0.3 1.6-0.9 3.3-1.6 4.9-3.7 8-7.5 16-11.3 24-4.3 9.3-9 18.4-14.4 27zm137.9-122.7c-0.2-2.9-0.8-5.7-2.1-8.4-1.4-2.6-3.2-3.6-6.1-3.2-1.3 0.1-2.7 0.5-3.8 1-2.5 1.4-5 2.7-7.2 4.3-6.3 4.7-11.6 10.5-16.4 16.6-14.2 17.8-25.3 37.4-34 58.3-3.9 9.3-7 19-10.4 28.5-3 8.2-5.8 16.5-8.8 24.6-1.1 3.2-0.5 5.9 1.7 8.2 1.5 1.7 3.4 3.2 5.4 4.4 7.1 4.2 14.6 4.4 22.3 1.9 7.2-2.2 13.2-6.6 18.5-11.8 5.9-5.6 10.6-12.1 14.7-19 7.5-12.6 13.2-26.1 17.6-40.1 5.6-17.8 8.8-35.9 9.2-56-0.2-2.2-0.3-5.8-0.6-9.3zm72.4-80q-1.1 0-2.3-0.1c-4.1-0.2-7.5-1.6-9.2-5.6-1-2.5-2.3-4.8-3.4-7.2-0.4-0.6-0.6-1.5-1.7-2.2 0.3 3.4-0.3 6.4 0.5 9.5 0.9 0.2 1.6 0.3 2.3 0.4 1.7 0.3 2.4 1.1 2.4 2.7 0 1.5-0.7 2.2-2.5 2.4-0.3 0.1-0.6 0-0.9 0-4.2 0-8.4 0.1-12.6 0-0.5 0-0.9 0.1-1.4 0-1.6-0.3-2.2-1.3-2.1-2.9 0.2-1.4 0.7-1.9 2.6-2.2 2.2-0.3 2.3-0.4 2.3-2.3q0.1-12.7 0-25.5c0-1.8-0.1-1.9-2-2.1-1.4-0.1-2.5-0.5-3-2.2-6.3 5.3-10 15.2-7.7 24 2.8 10.6 9.8 16.7 20.6 18.7 5.6 1.1 15.6-1.7 18.3-5.3q-0.1 0-0.2-0.1zm-11.4-25.2c0.9-1.8 1.2-3.8 0.7-5.7-0.6-2.6-2.4-4.5-5.6-3.5v11.3c2.3 0.4 3.9-0.3 4.9-2.1zm0 0c0.9-1.8 1.2-3.8 0.7-5.7-0.6-2.6-2.4-4.5-5.6-3.5v11.3c2.3 0.4 3.9-0.3 4.9-2.1zm0.7-5.7c-0.6-2.6-2.4-4.5-5.6-3.5v11.3c2.3 0.4 3.9-0.3 4.9-2.1 0.9-1.8 1.2-3.8 0.7-5.7zm-63.8 102.5c-1.4-2.6-3.2-3.6-6.1-3.2-1.3 0.1-2.7 0.5-3.8 1-2.5 1.4-5 2.7-7.2 4.3-6.3 4.7-11.6 10.5-16.4 16.6-14.2 17.8-25.3 37.4-34 58.3-3.9 9.3-7 19-10.4 28.5-3 8.2-5.8 16.5-8.8 24.6-1.1 3.2-0.5 5.9 1.7 8.2 1.5 1.7 3.4 3.2 5.4 4.4 7.1 4.2 14.6 4.4 22.3 1.9 7.2-2.2 13.2-6.6 18.5-11.8 5.9-5.6 10.6-12.1 14.7-19 7.5-12.6 13.2-26.1 17.6-40.1 5.6-17.8 8.8-35.9 9.2-56-0.2-2.2-0.3-5.8-0.6-9.3-0.2-2.9-0.8-5.7-2.1-8.4zm-757.5 4.1c-0.7-5.4-2.1-10.5-4.8-15.2-1-1.9-2.4-3.6-3.9-5.1-1.7-1.7-3.9-2.5-6.4-2.6-3.4-0.1-6.2 1.2-8.7 3.3-2.7 2.4-4.8 5.3-6.5 8.4-5.5 10.3-7.9 21.3-9 32.6-0.3 3.8 1.9 6.1 5.7 6.1 4 0.1 8 0 12 0v0.2c4.9-0.2 9.8-0.2 14.7-0.4 4.8-0.3 6.9-3.1 7.4-7.3 0.8-6.6 0.3-13.3-0.5-20zm-353.3-17.7c-2.2-1.1-4.6-1.8-7.1-1.9-6.4-0.2-12.7-0.4-18.9-0.4-3.1 0-6.3 0.3-9.2 1.5-2.7 1.1-3.3 1.8-2.6 4.6 0.8 3.3 1.8 6.5 3.2 9.4 3.9 8.2 8.2 16.1 12.3 24.2 1.4 2.6 2.7 5.1 4.4 8.2 3.6-6.9 7-13.3 10.3-19.7 2.8-5.5 5.5-11 8-16.6 0.9-1.7 1.2-3.8 1.6-5.8 0.3-1.7-0.4-2.8-2-3.5zm-22.2 147.1c-0.2-1.4-0.2-2.7-0.7-3.9-1.4-3.6-2.9-7.3-4.6-10.7-5.1-10.2-10.4-20.2-15.6-30.4-0.3-0.5-0.6-1-1-1.7-0.4 0.8-0.8 1.4-1.1 2-3.6 7.3-7.2 14.5-10.7 21.8-2.5 5.2-4.9 10.4-7.1 15.7-0.8 1.9-0.9 4.1-1.3 6.1-0.3 1.7 0.6 2.7 1.9 3.4 2.3 1.2 4.8 1.7 7.4 2.1 7.2 0.8 14.3 0.7 21.5 0.3 3.3-0.1 6.6-0.4 9.6-1.9 1.2-0.6 2-1.4 1.7-2.8zm0 0c-0.2-1.4-0.2-2.7-0.7-3.9-1.4-3.6-2.9-7.3-4.6-10.7-5.1-10.2-10.4-20.2-15.6-30.4-0.3-0.5-0.6-1-1-1.7-0.4 0.8-0.8 1.4-1.1 2-3.6 7.3-7.2 14.5-10.7 21.8-2.5 5.2-4.9 10.4-7.1 15.7-0.8 1.9-0.9 4.1-1.3 6.1-0.3 1.7 0.6 2.7 1.9 3.4 2.3 1.2 4.8 1.7 7.4 2.1 7.2 0.8 14.3 0.7 21.5 0.3 3.3-0.1 6.6-0.4 9.6-1.9 1.2-0.6 2-1.4 1.7-2.8zm22.2-147.1c-2.2-1.1-4.6-1.8-7.1-1.9-6.4-0.2-12.7-0.4-18.9-0.4-3.1 0-6.3 0.3-9.2 1.5-2.7 1.1-3.3 1.8-2.6 4.6 0.8 3.3 1.8 6.5 3.2 9.4 3.9 8.2 8.2 16.1 12.3 24.2 1.4 2.6 2.7 5.1 4.4 8.2 3.6-6.9 7-13.3 10.3-19.7 2.8-5.5 5.5-11 8-16.6 0.9-1.7 1.2-3.8 1.6-5.8 0.3-1.7-0.4-2.8-2-3.5zm353.3 17.7c-0.7-5.4-2.1-10.5-4.8-15.2-1-1.9-2.4-3.6-3.9-5.1-1.7-1.7-3.9-2.5-6.4-2.6-3.4-0.1-6.2 1.2-8.7 3.3-2.7 2.4-4.8 5.3-6.5 8.4-5.5 10.3-7.9 21.3-9 32.6-0.3 3.8 1.9 6.1 5.7 6.1 4 0.1 8 0 12 0v0.2c4.9-0.2 9.8-0.2 14.7-0.4 4.8-0.3 6.9-3.1 7.4-7.3 0.8-6.6 0.3-13.3-0.5-20zm759.6 4.3c-0.2-2.9-0.8-5.7-2.1-8.4-1.4-2.6-3.2-3.6-6.1-3.2-1.3 0.1-2.7 0.5-3.8 1-2.5 1.4-5 2.7-7.2 4.3-6.3 4.7-11.6 10.5-16.4 16.6-14.2 17.8-25.3 37.4-34 58.3-3.9 9.3-7 19-10.4 28.5-3 8.2-5.8 16.5-8.8 24.6-1.1 3.2-0.5 5.9 1.7 8.2 1.5 1.7 3.4 3.2 5.4 4.4 7.1 4.2 14.6 4.4 22.3 1.9 7.2-2.2 13.2-6.6 18.5-11.8 5.9-5.6 10.6-12.1 14.7-19 7.5-12.6 13.2-26.1 17.6-40.1 5.6-17.8 8.8-35.9 9.2-56-0.2-2.2-0.3-5.8-0.6-9.3zm0 0c-0.2-2.9-0.8-5.7-2.1-8.4-1.4-2.6-3.2-3.6-6.1-3.2-1.3 0.1-2.7 0.5-3.8 1-2.5 1.4-5 2.7-7.2 4.3-6.3 4.7-11.6 10.5-16.4 16.6-14.2 17.8-25.3 37.4-34 58.3-3.9 9.3-7 19-10.4 28.5-3 8.2-5.8 16.5-8.8 24.6-1.1 3.2-0.5 5.9 1.7 8.2 1.5 1.7 3.4 3.2 5.4 4.4 7.1 4.2 14.6 4.4 22.3 1.9 7.2-2.2 13.2-6.6 18.5-11.8 5.9-5.6 10.6-12.1 14.7-19 7.5-12.6 13.2-26.1 17.6-40.1 5.6-17.8 8.8-35.9 9.2-56-0.2-2.2-0.3-5.8-0.6-9.3zm-759.6-4.3c-0.7-5.4-2.1-10.5-4.8-15.2-1-1.9-2.4-3.6-3.9-5.1-1.7-1.7-3.9-2.5-6.4-2.6-3.4-0.1-6.2 1.2-8.7 3.3-2.7 2.4-4.8 5.3-6.5 8.4-5.5 10.3-7.9 21.3-9 32.6-0.3 3.8 1.9 6.1 5.7 6.1 4 0.1 8 0 12 0v0.2c4.9-0.2 9.8-0.2 14.7-0.4 4.8-0.3 6.9-3.1 7.4-7.3 0.8-6.6 0.3-13.3-0.5-20zm-353.3-17.7c-2.2-1.1-4.6-1.8-7.1-1.9-6.4-0.2-12.7-0.4-18.9-0.4-3.1 0-6.3 0.3-9.2 1.5-2.7 1.1-3.3 1.8-2.6 4.6 0.8 3.3 1.8 6.5 3.2 9.4 3.9 8.2 8.2 16.1 12.3 24.2 1.4 2.6 2.7 5.1 4.4 8.2 3.6-6.9 7-13.3 10.3-19.7 2.8-5.5 5.5-11 8-16.6 0.9-1.7 1.2-3.8 1.6-5.8 0.3-1.7-0.4-2.8-2-3.5zm-22.2 147.1c-0.2-1.4-0.2-2.7-0.7-3.9-1.4-3.6-2.9-7.3-4.6-10.7-5.1-10.2-10.4-20.2-15.6-30.4-0.3-0.5-0.6-1-1-1.7-0.4 0.8-0.8 1.4-1.1 2-3.6 7.3-7.2 14.5-10.7 21.8-2.5 5.2-4.9 10.4-7.1 15.7-0.8 1.9-0.9 4.1-1.3 6.1-0.3 1.7 0.6 2.7 1.9 3.4 2.3 1.2 4.8 1.7 7.4 2.1 7.2 0.8 14.3 0.7 21.5 0.3 3.3-0.1 6.6-0.4 9.6-1.9 1.2-0.6 2-1.4 1.7-2.8zm0 0c-0.2-1.4-0.2-2.7-0.7-3.9-1.4-3.6-2.9-7.3-4.6-10.7-5.1-10.2-10.4-20.2-15.6-30.4-0.3-0.5-0.6-1-1-1.7-0.4 0.8-0.8 1.4-1.1 2-3.6 7.3-7.2 14.5-10.7 21.8-2.5 5.2-4.9 10.4-7.1 15.7-0.8 1.9-0.9 4.1-1.3 6.1-0.3 1.7 0.6 2.7 1.9 3.4 2.3 1.2 4.8 1.7 7.4 2.1 7.2 0.8 14.3 0.7 21.5 0.3 3.3-0.1 6.6-0.4 9.6-1.9 1.2-0.6 2-1.4 1.7-2.8zm22.2-147.1c-2.2-1.1-4.6-1.8-7.1-1.9-6.4-0.2-12.7-0.4-18.9-0.4-3.1 0-6.3 0.3-9.2 1.5-2.7 1.1-3.3 1.8-2.6 4.6 0.8 3.3 1.8 6.5 3.2 9.4 3.9 8.2 8.2 16.1 12.3 24.2 1.4 2.6 2.7 5.1 4.4 8.2 3.6-6.9 7-13.3 10.3-19.7 2.8-5.5 5.5-11 8-16.6 0.9-1.7 1.2-3.8 1.6-5.8 0.3-1.7-0.4-2.8-2-3.5zm353.3 17.7c-0.7-5.4-2.1-10.5-4.8-15.2-1-1.9-2.4-3.6-3.9-5.1-1.7-1.7-3.9-2.5-6.4-2.6-3.4-0.1-6.2 1.2-8.7 3.3-2.7 2.4-4.8 5.3-6.5 8.4-5.5 10.3-7.9 21.3-9 32.6-0.3 3.8 1.9 6.1 5.7 6.1 4 0.1 8 0 12 0v0.2c4.9-0.2 9.8-0.2 14.7-0.4 4.8-0.3 6.9-3.1 7.4-7.3 0.8-6.6 0.3-13.3-0.5-20zm0 0c-0.7-5.4-2.1-10.5-4.8-15.2-1-1.9-2.4-3.6-3.9-5.1-1.7-1.7-3.9-2.5-6.4-2.6-3.4-0.1-6.2 1.2-8.7 3.3-2.7 2.4-4.8 5.3-6.5 8.4-5.5 10.3-7.9 21.3-9 32.6-0.3 3.8 1.9 6.1 5.7 6.1 4 0.1 8 0 12 0v0.2c4.9-0.2 9.8-0.2 14.7-0.4 4.8-0.3 6.9-3.1 7.4-7.3 0.8-6.6 0.3-13.3-0.5-20zm-353.3-17.7c-2.2-1.1-4.6-1.8-7.1-1.9-6.4-0.2-12.7-0.4-18.9-0.4-3.1 0-6.3 0.3-9.2 1.5-2.7 1.1-3.3 1.8-2.6 4.6 0.8 3.3 1.8 6.5 3.2 9.4 3.9 8.2 8.2 16.1 12.3 24.2 1.4 2.6 2.7 5.1 4.4 8.2 3.6-6.9 7-13.3 10.3-19.7 2.8-5.5 5.5-11 8-16.6 0.9-1.7 1.2-3.8 1.6-5.8 0.3-1.7-0.4-2.8-2-3.5zm-22.2 147.1c-0.2-1.4-0.2-2.7-0.7-3.9-1.4-3.6-2.9-7.3-4.6-10.7-5.1-10.2-10.4-20.2-15.6-30.4-0.3-0.5-0.6-1-1-1.7-0.4 0.8-0.8 1.4-1.1 2-3.6 7.3-7.2 14.5-10.7 21.8-2.5 5.2-4.9 10.4-7.1 15.7-0.8 1.9-0.9 4.1-1.3 6.1-0.3 1.7 0.6 2.7 1.9 3.4 2.3 1.2 4.8 1.7 7.4 2.1 7.2 0.8 14.3 0.7 21.5 0.3 3.3-0.1 6.6-0.4 9.6-1.9 1.2-0.6 2-1.4 1.7-2.8zm0 0c-0.2-1.4-0.2-2.7-0.7-3.9-1.4-3.6-2.9-7.3-4.6-10.7-5.1-10.2-10.4-20.2-15.6-30.4-0.3-0.5-0.6-1-1-1.7-0.4 0.8-0.8 1.4-1.1 2-3.6 7.3-7.2 14.5-10.7 21.8-2.5 5.2-4.9 10.4-7.1 15.7-0.8 1.9-0.9 4.1-1.3 6.1-0.3 1.7 0.6 2.7 1.9 3.4 2.3 1.2 4.8 1.7 7.4 2.1 7.2 0.8 14.3 0.7 21.5 0.3 3.3-0.1 6.6-0.4 9.6-1.9 1.2-0.6 2-1.4 1.7-2.8zm22.2-147.1c-2.2-1.1-4.6-1.8-7.1-1.9-6.4-0.2-12.7-0.4-18.9-0.4-3.1 0-6.3 0.3-9.2 1.5-2.7 1.1-3.3 1.8-2.6 4.6 0.8 3.3 1.8 6.5 3.2 9.4 3.9 8.2 8.2 16.1 12.3 24.2 1.4 2.6 2.7 5.1 4.4 8.2 3.6-6.9 7-13.3 10.3-19.7 2.8-5.5 5.5-11 8-16.6 0.9-1.7 1.2-3.8 1.6-5.8 0.3-1.7-0.4-2.8-2-3.5zm353.3 17.7c-0.7-5.4-2.1-10.5-4.8-15.2-1-1.9-2.4-3.6-3.9-5.1-1.7-1.7-3.9-2.5-6.4-2.6-3.4-0.1-6.2 1.2-8.7 3.3-2.7 2.4-4.8 5.3-6.5 8.4-5.5 10.3-7.9 21.3-9 32.6-0.3 3.8 1.9 6.1 5.7 6.1 4 0.1 8 0 12 0v0.2c4.9-0.2 9.8-0.2 14.7-0.4 4.8-0.3 6.9-3.1 7.4-7.3 0.8-6.6 0.3-13.3-0.5-20zm0 0c-0.7-5.4-2.1-10.5-4.8-15.2-1-1.9-2.4-3.6-3.9-5.1-1.7-1.7-3.9-2.5-6.4-2.6-3.4-0.1-6.2 1.2-8.7 3.3-2.7 2.4-4.8 5.3-6.5 8.4-5.5 10.3-7.9 21.3-9 32.6-0.3 3.8 1.9 6.1 5.7 6.1 4 0.1 8 0 12 0v0.2c4.9-0.2 9.8-0.2 14.7-0.4 4.8-0.3 6.9-3.1 7.4-7.3 0.8-6.6 0.3-13.3-0.5-20zm-353.3-17.7c-2.2-1.1-4.6-1.8-7.1-1.9-6.4-0.2-12.7-0.4-18.9-0.4-3.1 0-6.3 0.3-9.2 1.5-2.7 1.1-3.3 1.8-2.6 4.6 0.8 3.3 1.8 6.5 3.2 9.4 3.9 8.2 8.2 16.1 12.3 24.2 1.4 2.6 2.7 5.1 4.4 8.2 3.6-6.9 7-13.3 10.3-19.7 2.8-5.5 5.5-11 8-16.6 0.9-1.7 1.2-3.8 1.6-5.8 0.3-1.7-0.4-2.8-2-3.5zm-22.2 147.1c-0.2-1.4-0.2-2.7-0.7-3.9-1.4-3.6-2.9-7.3-4.6-10.7-5.1-10.2-10.4-20.2-15.6-30.4-0.3-0.5-0.6-1-1-1.7-0.4 0.8-0.8 1.4-1.1 2-3.6 7.3-7.2 14.5-10.7 21.8-2.5 5.2-4.9 10.4-7.1 15.7-0.8 1.9-0.9 4.1-1.3 6.1-0.3 1.7 0.6 2.7 1.9 3.4 2.3 1.2 4.8 1.7 7.4 2.1 7.2 0.8 14.3 0.7 21.5 0.3 3.3-0.1 6.6-0.4 9.6-1.9 1.2-0.6 2-1.4 1.7-2.8zm0 0c-0.2-1.4-0.2-2.7-0.7-3.9-1.4-3.6-2.9-7.3-4.6-10.7-5.1-10.2-10.4-20.2-15.6-30.4-0.3-0.5-0.6-1-1-1.7-0.4 0.8-0.8 1.4-1.1 2-3.6 7.3-7.2 14.5-10.7 21.8-2.5 5.2-4.9 10.4-7.1 15.7-0.8 1.9-0.9 4.1-1.3 6.1-0.3 1.7 0.6 2.7 1.9 3.4 2.3 1.2 4.8 1.7 7.4 2.1 7.2 0.8 14.3 0.7 21.5 0.3 3.3-0.1 6.6-0.4 9.6-1.9 1.2-0.6 2-1.4 1.7-2.8zm22.2-147.1c-2.2-1.1-4.6-1.8-7.1-1.9-6.4-0.2-12.7-0.4-18.9-0.4-3.1 0-6.3 0.3-9.2 1.5-2.7 1.1-3.3 1.8-2.6 4.6 0.8 3.3 1.8 6.5 3.2 9.4 3.9 8.2 8.2 16.1 12.3 24.2 1.4 2.6 2.7 5.1 4.4 8.2 3.6-6.9 7-13.3 10.3-19.7 2.8-5.5 5.5-11 8-16.6 0.9-1.7 1.2-3.8 1.6-5.8 0.3-1.7-0.4-2.8-2-3.5zm0 0c-2.2-1.1-4.6-1.8-7.1-1.9-6.4-0.2-12.7-0.4-18.9-0.4-3.1 0-6.3 0.3-9.2 1.5-2.7 1.1-3.3 1.8-2.6 4.6 0.8 3.3 1.8 6.5 3.2 9.4 3.9 8.2 8.2 16.1 12.3 24.2 1.4 2.6 2.7 5.1 4.4 8.2 3.6-6.9 7-13.3 10.3-19.7 2.8-5.5 5.5-11 8-16.6 0.9-1.7 1.2-3.8 1.6-5.8 0.3-1.7-0.4-2.8-2-3.5zm-22.2 147.1c-0.2-1.4-0.2-2.7-0.7-3.9-1.4-3.6-2.9-7.3-4.6-10.7-5.1-10.2-10.4-20.2-15.6-30.4-0.3-0.5-0.6-1-1-1.7-0.4 0.8-0.8 1.4-1.1 2-3.6 7.3-7.2 14.5-10.7 21.8-2.5 5.2-4.9 10.4-7.1 15.7-0.8 1.9-0.9 4.1-1.3 6.1-0.3 1.7 0.6 2.7 1.9 3.4 2.3 1.2 4.8 1.7 7.4 2.1 7.2 0.8 14.3 0.7 21.5 0.3 3.3-0.1 6.6-0.4 9.6-1.9 1.2-0.6 2-1.4 1.7-2.8zm0 0c-0.2-1.4-0.2-2.7-0.7-3.9-1.4-3.6-2.9-7.3-4.6-10.7-5.1-10.2-10.4-20.2-15.6-30.4-0.3-0.5-0.6-1-1-1.7-0.4 0.8-0.8 1.4-1.1 2-3.6 7.3-7.2 14.5-10.7 21.8-2.5 5.2-4.9 10.4-7.1 15.7-0.8 1.9-0.9 4.1-1.3 6.1-0.3 1.7 0.6 2.7 1.9 3.4 2.3 1.2 4.8 1.7 7.4 2.1 7.2 0.8 14.3 0.7 21.5 0.3 3.3-0.1 6.6-0.4 9.6-1.9 1.2-0.6 2-1.4 1.7-2.8zm22.2-147.1c-2.2-1.1-4.6-1.8-7.1-1.9-6.4-0.2-12.7-0.4-18.9-0.4-3.1 0-6.3 0.3-9.2 1.5-2.7 1.1-3.3 1.8-2.6 4.6 0.8 3.3 1.8 6.5 3.2 9.4 3.9 8.2 8.2 16.1 12.3 24.2 1.4 2.6 2.7 5.1 4.4 8.2 3.6-6.9 7-13.3 10.3-19.7 2.8-5.5 5.5-11 8-16.6 0.9-1.7 1.2-3.8 1.6-5.8 0.3-1.7-0.4-2.8-2-3.5zm0 0c-2.2-1.1-4.6-1.8-7.1-1.9-6.4-0.2-12.7-0.4-18.9-0.4-3.1 0-6.3 0.3-9.2 1.5-2.7 1.1-3.3 1.8-2.6 4.6 0.8 3.3 1.8 6.5 3.2 9.4 3.9 8.2 8.2 16.1 12.3 24.2 1.4 2.6 2.7 5.1 4.4 8.2 3.6-6.9 7-13.3 10.3-19.7 2.8-5.5 5.5-11 8-16.6 0.9-1.7 1.2-3.8 1.6-5.8 0.3-1.7-0.4-2.8-2-3.5zm-22.2 147.1c-0.2-1.4-0.2-2.7-0.7-3.9-1.4-3.6-2.9-7.3-4.6-10.7-5.1-10.2-10.4-20.2-15.6-30.4-0.3-0.5-0.6-1-1-1.7-0.4 0.8-0.8 1.4-1.1 2-3.6 7.3-7.2 14.5-10.7 21.8-2.5 5.2-4.9 10.4-7.1 15.7-0.8 1.9-0.9 4.1-1.3 6.1-0.3 1.7 0.6 2.7 1.9 3.4 2.3 1.2 4.8 1.7 7.4 2.1 7.2 0.8 14.3 0.7 21.5 0.3 3.3-0.1 6.6-0.4 9.6-1.9 1.2-0.6 2-1.4 1.7-2.8z"/>
	</g>
</svg>