<svg version="1.1" id="Layer_1" xmlns="http://www.w3.org/2000/svg" xmlns:xlink="http://www.w3.org/1999/xlink" x="0px" y="0px"
	 width="100%" viewBox="0 0 512 512" enable-background="new 0 0 512 512" xml:space="preserve">
<path fill="#000000" opacity="1.000000" stroke="none" 
	d="
M258.000000,513.000000 
	C257.555542,513.000000 257.111115,513.000000 256.258362,512.662842 
	C249.725922,504.542847 243.603439,496.758728 237.477325,488.977539 
	C225.113342,473.273132 212.686050,457.618103 200.398575,441.854095 
	C186.730667,424.319122 173.186035,406.688049 159.594238,389.093811 
	C150.566605,377.407806 141.607239,365.668488 132.511536,354.035767 
	C124.798569,344.171509 116.589256,334.676697 109.227196,324.561584 
	C100.790115,312.969482 92.463402,301.219727 85.141525,288.912170 
	C75.134033,272.090271 68.800331,253.609222 65.334053,234.403091 
	C63.024879,221.608276 61.421432,208.510727 61.350822,195.538620 
	C61.285671,183.569809 63.288105,171.527115 65.099480,159.626480 
	C67.404396,144.483246 72.098808,129.936493 78.520157,116.036331 
	C86.338058,99.113052 95.871704,83.270210 108.232986,69.142014 
	C118.125839,57.835087 128.766235,47.478210 140.859375,38.518894 
	C152.692657,29.752094 165.123123,21.984762 178.854355,16.792526 
	C190.963638,12.213607 203.497726,8.722764 215.937241,5.067984 
	C221.846466,3.331825 227.972290,2.332905 234.000000,1.000001 
	C249.020889,1.000000 264.041779,1.000000 279.676544,1.392509 
	C284.769257,2.522508 289.238586,3.324557 293.728638,3.986097 
	C311.355316,6.583133 328.167542,11.937970 344.136932,19.683661 
	C370.925110,32.676811 393.619934,50.869305 411.942780,74.433685 
	C423.783417,89.661461 433.402344,106.214371 439.874908,124.331856 
	C448.465332,148.377579 452.906616,173.162781 452.183350,198.923065 
	C451.772644,213.549744 450.351715,227.893448 447.006531,242.096024 
	C440.211334,270.946014 426.880798,296.574921 408.689026,319.788055 
	C397.255280,334.377777 385.624756,348.813477 374.217438,363.423615 
	C364.337250,376.077911 354.739990,388.953186 344.850586,401.600159 
	C331.133301,419.142456 317.168457,436.491364 303.477539,454.054016 
	C288.220154,473.626129 273.151062,493.345001 258.000000,513.000000 
M229.059372,296.576263 
	C234.589355,297.715057 240.075424,299.493134 245.657288,299.876526 
	C264.765015,301.188904 283.400024,299.011108 300.912842,290.573151 
	C320.278137,281.242584 335.506622,267.536865 346.662628,248.979340 
	C360.213043,226.438782 363.966461,202.198105 359.733429,176.762512 
	C357.127136,161.101852 350.397034,146.765930 340.973572,133.868698 
	C331.173859,120.456451 318.721222,109.932999 303.942047,102.597557 
	C287.236176,94.305824 269.529114,90.695839 250.579315,91.759598 
	C235.321487,92.616104 221.152145,96.667313 208.087067,103.678307 
	C181.897476,117.732193 164.744980,139.589081 156.357803,168.201492 
	C151.788666,183.788818 151.333771,199.813629 154.439362,215.434280 
	C159.195068,239.354767 170.721634,259.802155 189.960632,275.547577 
	C201.468536,284.965759 213.955688,292.277344 229.059372,296.576263 
z"/>
<path fill="none" opacity="1.000000" stroke="none" 
	d="
M233.531342,1.000001 
	C227.972290,2.332905 221.846466,3.331825 215.937241,5.067984 
	C203.497726,8.722764 190.963638,12.213607 178.854355,16.792526 
	C165.123123,21.984762 152.692657,29.752094 140.859375,38.518894 
	C128.766235,47.478210 118.125839,57.835087 108.232986,69.142014 
	C95.871704,83.270210 86.338058,99.113052 78.520157,116.036331 
	C72.098808,129.936493 67.404396,144.483246 65.099480,159.626480 
	C63.288105,171.527115 61.285671,183.569809 61.350822,195.538620 
	C61.421432,208.510727 63.024879,221.608276 65.334053,234.403091 
	C68.800331,253.609222 75.134033,272.090271 85.141525,288.912170 
	C92.463402,301.219727 100.790115,312.969482 109.227196,324.561584 
	C116.589256,334.676697 124.798569,344.171509 132.511536,354.035767 
	C141.607239,365.668488 150.566605,377.407806 159.594238,389.093811 
	C173.186035,406.688049 186.730667,424.319122 200.398575,441.854095 
	C212.686050,457.618103 225.113342,473.273132 237.477325,488.977539 
	C243.603439,496.758728 249.725922,504.542847 255.925018,512.662842 
	C171.037201,513.000000 86.074394,513.000000 1.055796,513.000000 
	C1.055796,342.445221 1.055796,171.890442 1.055796,1.000000 
	C78.353905,1.000000 155.708298,1.000000 233.531342,1.000001 
z"/>
<path fill="none" opacity="1.000000" stroke="none" 
	d="
M258.468689,513.000000 
	C273.151062,493.345001 288.220154,473.626129 303.477539,454.054016 
	C317.168457,436.491364 331.133301,419.142456 344.850586,401.600159 
	C354.739990,388.953186 364.337250,376.077911 374.217438,363.423615 
	C385.624756,348.813477 397.255280,334.377777 408.689026,319.788055 
	C426.880798,296.574921 440.211334,270.946014 447.006531,242.096024 
	C450.351715,227.893448 451.772644,213.549744 452.183350,198.923065 
	C452.906616,173.162781 448.465332,148.377579 439.874908,124.331856 
	C433.402344,106.214371 423.783417,89.661461 411.942780,74.433685 
	C393.619934,50.869305 370.925110,32.676811 344.136932,19.683661 
	C328.167542,11.937970 311.355316,6.583133 293.728638,3.986097 
	C289.238586,3.324557 284.769257,2.522508 280.145203,1.392509 
	C357.632690,1.000000 435.265381,1.000000 512.949036,1.000000 
	C512.949036,171.558014 512.949036,342.116028 512.949036,513.000000 
	C428.312714,513.000000 343.625031,513.000000 258.468689,513.000000 
z"/>
<path fill="none" opacity="1.000000" stroke="none" 
	d="
M228.732468,296.311035 
	C213.955688,292.277344 201.468536,284.965759 189.960632,275.547577 
	C170.721634,259.802155 159.195068,239.354767 154.439362,215.434280 
	C151.333771,199.813629 151.788666,183.788818 156.357803,168.201492 
	C164.744980,139.589081 181.897476,117.732193 208.087067,103.678307 
	C221.152145,96.667313 235.321487,92.616104 250.579315,91.759598 
	C269.529114,90.695839 287.236176,94.305824 303.942047,102.597557 
	C318.721222,109.932999 331.173859,120.456451 340.973572,133.868698 
	C350.397034,146.765930 357.127136,161.101852 359.733429,176.762512 
	C363.966461,202.198105 360.213043,226.438782 346.662628,248.979340 
	C335.506622,267.536865 320.278137,281.242584 300.912842,290.573151 
	C283.400024,299.011108 264.765015,301.188904 245.657288,299.876526 
	C240.075424,299.493134 234.589355,297.715057 228.732468,296.311035 
M204.001343,142.498291 
	C200.667801,146.331345 196.852417,149.847366 194.085144,154.053024 
	C182.852188,171.124741 179.531158,189.960968 183.038574,209.949249 
	C187.523361,235.507324 202.596069,253.328293 225.333511,264.535980 
	C239.213150,271.377533 254.275970,272.491943 269.674744,270.066620 
	C294.262939,266.194061 311.890839,252.441376 323.724762,231.360901 
	C332.244019,216.185059 334.018829,199.476181 331.062317,182.204254 
	C327.764771,162.940125 317.957794,147.832932 302.746765,135.989670 
	C288.763275,125.102211 272.865784,120.514267 255.157898,120.907791 
	C235.395187,121.346992 218.487030,127.998734 204.001343,142.498291 
z"/>
<path fill="#000000" opacity="1.000000" stroke="none" 
	d="
M204.252197,142.248245 
	C218.487030,127.998734 235.395187,121.346992 255.157898,120.907791 
	C272.865784,120.514267 288.763275,125.102211 302.746765,135.989670 
	C317.957794,147.832932 327.764771,162.940125 331.062317,182.204254 
	C334.018829,199.476181 332.244019,216.185059 323.724762,231.360901 
	C311.890839,252.441376 294.262939,266.194061 269.674744,270.066620 
	C254.275970,272.491943 239.213150,271.377533 225.333511,264.535980 
	C202.596069,253.328293 187.523361,235.507324 183.038574,209.949249 
	C179.531158,189.960968 182.852188,171.124741 194.085144,154.053024 
	C196.852417,149.847366 200.667801,146.331345 204.252197,142.248245 
z"/>
</svg>
